<svg xmlns="http://www.w3.org/2000/svg" xmlns:xlink="http://www.w3.org/1999/xlink" width="500" zoomAndPan="magnify" viewBox="0 0 375 374.999991" height="500" preserveAspectRatio="xMidYMid meet" version="1.0"><defs><g/><clipPath id="d2a391eef8"><path d="M 73.226562 156.070312 L 138.476562 156.070312 L 138.476562 221.320312 L 73.226562 221.320312 Z M 73.226562 156.070312 " clip-rule="nonzero"/></clipPath></defs><rect x="-37.5" width="450" fill="#ffffff" y="-37.499999" height="449.999989" fill-opacity="1"/><rect x="-37.5" width="450" fill="#f4f4f4" y="-37.499999" height="449.999989" fill-opacity="1"/><g clip-path="url(#d2a391eef8)"><path fill="#5e17eb" d="M 138.445312 180.160156 L 138.445312 178.316406 C 138.429688 178.230469 138.417969 178.140625 138.414062 178.054688 C 138.394531 177.980469 138.371094 177.875 138.363281 177.859375 L 138.402344 177.824219 L 138.402344 177.707031 C 138.402344 177.707031 138.359375 177.53125 138.351562 177.511719 L 138.375 177.496094 L 138.210938 177.585938 L 137.996094 177.3125 C 137.933594 177.273438 137.699219 177.070312 137.644531 177.015625 L 106.652344 156.347656 C 106.410156 156.1875 106.144531 156.105469 105.851562 156.105469 C 105.558594 156.105469 105.292969 156.1875 105.050781 156.347656 L 73.90625 177.109375 L 73.667969 177.308594 C 73.636719 177.371094 73.492188 177.554688 73.453125 177.605469 C 73.417969 177.722656 73.359375 177.828125 73.285156 177.925781 L 73.285156 177.988281 L 73.265625 180.15625 L 73.265625 199.078125 L 73.3125 199.425781 C 73.378906 199.558594 73.4375 199.699219 73.480469 199.84375 C 73.503906 199.867188 73.695312 200.097656 73.71875 200.125 C 73.851562 200.210938 73.976562 200.3125 74.089844 200.421875 L 105.058594 221.042969 C 105.300781 221.199219 105.570312 221.28125 105.863281 221.28125 C 106.152344 221.28125 106.421875 221.199219 106.664062 221.042969 L 137.808594 200.28125 L 138.042969 200.078125 C 138.101562 199.996094 138.164062 199.914062 138.230469 199.835938 C 138.25 199.789062 138.359375 199.585938 138.386719 199.539062 C 138.414062 199.492188 138.414062 199.402344 138.429688 199.320312 C 138.4375 199.273438 138.445312 199.226562 138.453125 199.179688 Z M 107.304688 176.304688 L 107.304688 162.65625 C 107.304688 162.382812 107.375 162.128906 107.515625 161.894531 C 107.65625 161.65625 107.84375 161.476562 108.085938 161.347656 C 108.328125 161.21875 108.585938 161.160156 108.859375 161.171875 C 109.132812 161.1875 109.382812 161.269531 109.609375 161.421875 L 132.546875 176.71875 C 132.988281 177.011719 133.207031 177.425781 133.207031 177.953125 C 133.195312 178.015625 133.179688 178.078125 133.160156 178.136719 C 133.179688 178.195312 133.195312 178.257812 133.207031 178.320312 C 133.207031 178.847656 132.988281 179.257812 132.546875 179.550781 L 122.300781 186.402344 C 122.050781 186.570312 121.773438 186.652344 121.472656 186.652344 C 121.175781 186.652344 120.898438 186.570312 120.648438 186.402344 L 107.953125 177.917969 C 107.511719 177.625 107.292969 177.214844 107.292969 176.683594 Z M 78.503906 177.945312 C 78.507812 177.421875 78.726562 177.011719 79.160156 176.71875 L 102.105469 161.410156 C 102.332031 161.257812 102.582031 161.175781 102.855469 161.160156 C 103.128906 161.148438 103.386719 161.207031 103.628906 161.335938 C 103.871094 161.464844 104.058594 161.644531 104.199219 161.882812 C 104.339844 162.117188 104.410156 162.371094 104.410156 162.644531 L 104.410156 176.683594 C 104.410156 177.214844 104.191406 177.625 103.75 177.917969 L 91.054688 186.402344 C 90.804688 186.570312 90.53125 186.652344 90.230469 186.652344 C 89.929688 186.652344 89.65625 186.570312 89.40625 186.402344 L 79.160156 179.550781 C 78.714844 179.261719 78.492188 178.847656 78.492188 178.316406 C 78.503906 178.253906 78.519531 178.195312 78.539062 178.136719 C 78.519531 178.074219 78.503906 178.015625 78.492188 177.953125 Z M 77.644531 195.074219 C 77.449219 195.074219 77.257812 195.035156 77.078125 194.960938 C 76.894531 194.886719 76.734375 194.777344 76.59375 194.640625 C 76.457031 194.5 76.347656 194.339844 76.273438 194.15625 C 76.199219 193.976562 76.160156 193.785156 76.160156 193.589844 L 76.160156 183.804688 C 76.160156 183.527344 76.230469 183.273438 76.371094 183.039062 C 76.511719 182.804688 76.703125 182.621094 76.945312 182.492188 C 77.1875 182.363281 77.445312 182.304688 77.71875 182.320312 C 77.992188 182.332031 78.242188 182.414062 78.472656 182.570312 L 85.796875 187.46875 C 86.230469 187.765625 86.445312 188.171875 86.445312 188.695312 C 86.445312 189.226562 86.226562 189.636719 85.785156 189.929688 L 78.460938 194.832031 C 78.207031 194.996094 77.933594 195.082031 77.632812 195.082031 Z M 104.421875 214.351562 C 104.421875 214.546875 104.386719 214.738281 104.308594 214.917969 C 104.234375 215.101562 104.128906 215.261719 103.988281 215.398438 C 103.851562 215.539062 103.691406 215.648438 103.507812 215.722656 C 103.324219 215.796875 103.136719 215.835938 102.941406 215.835938 C 102.640625 215.835938 102.363281 215.753906 102.117188 215.585938 L 79.160156 200.308594 C 79.058594 200.242188 78.964844 200.160156 78.882812 200.070312 C 78.800781 199.980469 78.734375 199.882812 78.675781 199.773438 C 78.617188 199.667969 78.574219 199.554688 78.542969 199.433594 C 78.515625 199.316406 78.5 199.195312 78.5 199.074219 C 78.5 198.953125 78.515625 198.832031 78.542969 198.714844 C 78.574219 198.59375 78.617188 198.480469 78.675781 198.375 C 78.734375 198.265625 78.800781 198.167969 78.882812 198.078125 C 78.964844 197.988281 79.058594 197.90625 79.160156 197.839844 L 89.414062 190.988281 C 89.664062 190.820312 89.9375 190.738281 90.238281 190.738281 C 90.539062 190.738281 90.816406 190.820312 91.066406 190.988281 L 103.761719 199.488281 C 104.203125 199.78125 104.421875 200.191406 104.421875 200.71875 Z M 105.851562 197.109375 C 105.554688 197.109375 105.277344 197.027344 105.027344 196.863281 L 94.671875 189.933594 C 94.230469 189.636719 94.015625 189.226562 94.015625 188.695312 C 94.027344 188.632812 94.042969 188.574219 94.058594 188.511719 C 94.042969 188.453125 94.027344 188.390625 94.015625 188.324219 C 94.015625 187.796875 94.234375 187.386719 94.671875 187.09375 L 105.027344 180.164062 C 105.277344 180 105.554688 179.917969 105.851562 179.917969 C 106.152344 179.917969 106.425781 180 106.675781 180.164062 L 117.039062 187.09375 C 117.476562 187.386719 117.695312 187.796875 117.695312 188.324219 C 117.683594 188.390625 117.667969 188.453125 117.648438 188.511719 C 117.667969 188.574219 117.683594 188.632812 117.695312 188.695312 C 117.695312 189.226562 117.476562 189.636719 117.039062 189.929688 L 106.675781 196.859375 C 106.425781 197.023438 106.152344 197.109375 105.851562 197.109375 Z M 132.546875 200.308594 L 109.597656 215.601562 C 109.347656 215.769531 109.070312 215.851562 108.769531 215.847656 C 108.574219 215.847656 108.386719 215.8125 108.203125 215.738281 C 108.023438 215.660156 107.863281 215.554688 107.722656 215.414062 C 107.582031 215.277344 107.476562 215.117188 107.402344 214.933594 C 107.324219 214.753906 107.289062 214.5625 107.289062 214.367188 L 107.289062 200.722656 C 107.289062 200.195312 107.507812 199.785156 107.945312 199.488281 L 120.648438 190.992188 C 120.898438 190.824219 121.175781 190.742188 121.476562 190.742188 C 121.777344 190.742188 122.050781 190.824219 122.300781 190.992188 L 132.546875 197.839844 C 132.648438 197.90625 132.738281 197.988281 132.820312 198.078125 C 132.902344 198.167969 132.972656 198.265625 133.03125 198.375 C 133.089844 198.480469 133.132812 198.59375 133.160156 198.714844 C 133.191406 198.832031 133.207031 198.953125 133.207031 199.074219 C 133.207031 199.195312 133.191406 199.316406 133.160156 199.433594 C 133.132812 199.554688 133.089844 199.667969 133.03125 199.773438 C 132.972656 199.882812 132.902344 199.980469 132.820312 200.070312 C 132.738281 200.160156 132.648438 200.242188 132.546875 200.308594 Z M 135.550781 193.597656 C 135.550781 193.796875 135.511719 193.984375 135.4375 194.167969 C 135.363281 194.347656 135.253906 194.507812 135.117188 194.648438 C 134.976562 194.785156 134.816406 194.894531 134.636719 194.96875 C 134.453125 195.042969 134.265625 195.082031 134.066406 195.082031 C 133.765625 195.082031 133.488281 194.996094 133.238281 194.828125 L 125.921875 189.925781 C 125.820312 189.859375 125.730469 189.78125 125.648438 189.691406 C 125.566406 189.601562 125.5 189.5 125.441406 189.394531 C 125.386719 189.289062 125.34375 189.175781 125.3125 189.058594 C 125.285156 188.941406 125.269531 188.820312 125.269531 188.699219 C 125.269531 188.578125 125.285156 188.460938 125.3125 188.339844 C 125.34375 188.222656 125.386719 188.113281 125.441406 188.003906 C 125.5 187.898438 125.566406 187.800781 125.648438 187.707031 C 125.730469 187.617188 125.820312 187.539062 125.921875 187.472656 L 133.238281 182.566406 C 133.46875 182.414062 133.71875 182.332031 133.992188 182.316406 C 134.265625 182.300781 134.523438 182.359375 134.765625 182.488281 C 135.007812 182.617188 135.199219 182.800781 135.339844 183.035156 C 135.480469 183.269531 135.550781 183.527344 135.550781 183.800781 Z M 135.550781 193.597656 " fill-opacity="1" fill-rule="nonzero"/></g><g fill="#22201c" fill-opacity="1"><g transform="translate(152.854213, 210.414478)"><g><path d="M 4.640625 0.125 C 3.847656 0.125 3.082031 0.00390625 2.34375 -0.234375 C 1.613281 -0.484375 1.035156 -0.804688 0.609375 -1.203125 L 1.171875 -2.375 C 1.566406 -2.007812 2.078125 -1.710938 2.703125 -1.484375 C 3.328125 -1.265625 3.972656 -1.15625 4.640625 -1.15625 C 5.503906 -1.15625 6.148438 -1.300781 6.578125 -1.59375 C 7.015625 -1.894531 7.234375 -2.289062 7.234375 -2.78125 C 7.234375 -3.132812 7.113281 -3.421875 6.875 -3.640625 C 6.644531 -3.867188 6.351562 -4.039062 6 -4.15625 C 5.65625 -4.28125 5.171875 -4.421875 4.546875 -4.578125 C 3.753906 -4.765625 3.113281 -4.953125 2.625 -5.140625 C 2.144531 -5.335938 1.734375 -5.628906 1.390625 -6.015625 C 1.046875 -6.410156 0.875 -6.945312 0.875 -7.625 C 0.875 -8.175781 1.019531 -8.675781 1.3125 -9.125 C 1.601562 -9.582031 2.050781 -9.945312 2.65625 -10.21875 C 3.257812 -10.488281 4.003906 -10.625 4.890625 -10.625 C 5.503906 -10.625 6.113281 -10.539062 6.71875 -10.375 C 7.320312 -10.21875 7.835938 -9.988281 8.265625 -9.6875 L 7.765625 -8.484375 C 7.328125 -8.765625 6.859375 -8.976562 6.359375 -9.125 C 5.859375 -9.269531 5.367188 -9.34375 4.890625 -9.34375 C 4.035156 -9.34375 3.394531 -9.1875 2.96875 -8.875 C 2.550781 -8.570312 2.34375 -8.175781 2.34375 -7.6875 C 2.34375 -7.320312 2.460938 -7.023438 2.703125 -6.796875 C 2.941406 -6.578125 3.238281 -6.40625 3.59375 -6.28125 C 3.945312 -6.15625 4.429688 -6.019531 5.046875 -5.875 C 5.828125 -5.6875 6.457031 -5.5 6.9375 -5.3125 C 7.425781 -5.125 7.84375 -4.832031 8.1875 -4.4375 C 8.53125 -4.050781 8.703125 -3.523438 8.703125 -2.859375 C 8.703125 -2.316406 8.550781 -1.816406 8.25 -1.359375 C 7.945312 -0.898438 7.488281 -0.535156 6.875 -0.265625 C 6.269531 -0.00390625 5.523438 0.125 4.640625 0.125 Z M 4.640625 0.125 "/></g></g></g><g fill="#22201c" fill-opacity="1"><g transform="translate(164.1042, 210.414478)"><g><path d="M 3.65625 -9.1875 L 0.0625 -9.1875 L 0.0625 -10.5 L 8.75 -10.5 L 8.75 -9.1875 L 5.140625 -9.1875 L 5.140625 0 L 3.65625 0 Z M 3.65625 -9.1875 "/></g></g></g><g fill="#22201c" fill-opacity="1"><g transform="translate(174.844192, 210.414478)"><g><path d="M 5.921875 0.125 C 4.523438 0.125 3.4375 -0.273438 2.65625 -1.078125 C 1.875 -1.878906 1.484375 -3.03125 1.484375 -4.53125 L 1.484375 -10.5 L 2.984375 -10.5 L 2.984375 -4.59375 C 2.984375 -2.34375 3.96875 -1.21875 5.9375 -1.21875 C 6.894531 -1.21875 7.628906 -1.492188 8.140625 -2.046875 C 8.648438 -2.597656 8.90625 -3.445312 8.90625 -4.59375 L 8.90625 -10.5 L 10.359375 -10.5 L 10.359375 -4.53125 C 10.359375 -3.019531 9.96875 -1.863281 9.1875 -1.0625 C 8.414062 -0.269531 7.328125 0.125 5.921875 0.125 Z M 5.921875 0.125 "/></g></g></g><g fill="#22201c" fill-opacity="1"><g transform="translate(188.644183, 210.414478)"><g><path d="M 1.578125 -10.5 L 6 -10.5 C 7.113281 -10.5 8.097656 -10.28125 8.953125 -9.84375 C 9.816406 -9.40625 10.484375 -8.785156 10.953125 -7.984375 C 11.429688 -7.191406 11.671875 -6.28125 11.671875 -5.25 C 11.671875 -4.21875 11.429688 -3.300781 10.953125 -2.5 C 10.484375 -1.707031 9.816406 -1.09375 8.953125 -0.65625 C 8.097656 -0.21875 7.113281 0 6 0 L 1.578125 0 Z M 5.90625 -1.3125 C 6.757812 -1.3125 7.507812 -1.472656 8.15625 -1.796875 C 8.800781 -2.128906 9.296875 -2.59375 9.640625 -3.1875 C 9.992188 -3.78125 10.171875 -4.46875 10.171875 -5.25 C 10.171875 -6.03125 9.992188 -6.71875 9.640625 -7.3125 C 9.296875 -7.90625 8.800781 -8.363281 8.15625 -8.6875 C 7.507812 -9.019531 6.757812 -9.1875 5.90625 -9.1875 L 3.078125 -9.1875 L 3.078125 -1.3125 Z M 5.90625 -1.3125 "/></g></g></g><g fill="#22201c" fill-opacity="1"><g transform="translate(202.969175, 210.414478)"><g><path d="M 1.578125 -10.5 L 3.078125 -10.5 L 3.078125 0 L 1.578125 0 Z M 1.578125 -10.5 "/></g></g></g><g fill="#22201c" fill-opacity="1"><g transform="translate(209.554174, 210.414478)"><g><path d="M 6.3125 0.125 C 5.25 0.125 4.289062 -0.109375 3.4375 -0.578125 C 2.59375 -1.046875 1.925781 -1.6875 1.4375 -2.5 C 0.957031 -3.320312 0.71875 -4.238281 0.71875 -5.25 C 0.71875 -6.257812 0.957031 -7.171875 1.4375 -7.984375 C 1.925781 -8.804688 2.59375 -9.453125 3.4375 -9.921875 C 4.289062 -10.390625 5.25 -10.625 6.3125 -10.625 C 7.363281 -10.625 8.3125 -10.390625 9.15625 -9.921875 C 10.007812 -9.453125 10.675781 -8.8125 11.15625 -8 C 11.632812 -7.1875 11.875 -6.269531 11.875 -5.25 C 11.875 -4.226562 11.632812 -3.3125 11.15625 -2.5 C 10.675781 -1.6875 10.007812 -1.046875 9.15625 -0.578125 C 8.3125 -0.109375 7.363281 0.125 6.3125 0.125 Z M 6.3125 -1.21875 C 7.082031 -1.21875 7.773438 -1.390625 8.390625 -1.734375 C 9.003906 -2.085938 9.488281 -2.570312 9.84375 -3.1875 C 10.195312 -3.800781 10.375 -4.488281 10.375 -5.25 C 10.375 -6.007812 10.195312 -6.695312 9.84375 -7.3125 C 9.488281 -7.925781 9.003906 -8.40625 8.390625 -8.75 C 7.773438 -9.101562 7.082031 -9.28125 6.3125 -9.28125 C 5.539062 -9.28125 4.84375 -9.101562 4.21875 -8.75 C 3.59375 -8.40625 3.101562 -7.925781 2.75 -7.3125 C 2.394531 -6.695312 2.21875 -6.007812 2.21875 -5.25 C 2.21875 -4.488281 2.394531 -3.800781 2.75 -3.1875 C 3.101562 -2.570312 3.59375 -2.085938 4.21875 -1.734375 C 4.84375 -1.390625 5.539062 -1.21875 6.3125 -1.21875 Z M 6.3125 -1.21875 "/></g></g></g><g fill="#22201c" fill-opacity="1"><g transform="translate(152.43288, 184.515573)"><g><path d="M 11.125 -6.78125 C 11.875 -6.550781 12.457031 -6.15625 12.875 -5.59375 C 13.300781 -5.039062 13.515625 -4.363281 13.515625 -3.5625 C 13.515625 -2.414062 13.066406 -1.535156 12.171875 -0.921875 C 11.285156 -0.304688 9.992188 0 8.296875 0 L 1.546875 0 L 1.546875 -13.046875 L 7.921875 -13.046875 C 9.515625 -13.046875 10.734375 -12.738281 11.578125 -12.125 C 12.429688 -11.519531 12.859375 -10.695312 12.859375 -9.65625 C 12.859375 -9.019531 12.707031 -8.453125 12.40625 -7.953125 C 12.101562 -7.460938 11.675781 -7.070312 11.125 -6.78125 Z M 4.546875 -10.78125 L 4.546875 -7.703125 L 7.546875 -7.703125 C 8.296875 -7.703125 8.863281 -7.832031 9.25 -8.09375 C 9.632812 -8.351562 9.828125 -8.738281 9.828125 -9.25 C 9.828125 -9.757812 9.632812 -10.140625 9.25 -10.390625 C 8.863281 -10.648438 8.296875 -10.78125 7.546875 -10.78125 Z M 8.078125 -2.28125 C 8.867188 -2.28125 9.460938 -2.410156 9.859375 -2.671875 C 10.265625 -2.929688 10.46875 -3.332031 10.46875 -3.875 C 10.46875 -4.957031 9.671875 -5.5 8.078125 -5.5 L 4.546875 -5.5 L 4.546875 -2.28125 Z M 8.078125 -2.28125 "/></g></g></g><g fill="#22201c" fill-opacity="1"><g transform="translate(168.374245, 184.515573)"><g><path d="M 7.8125 -4.625 L 7.8125 0 L 4.796875 0 L 4.796875 -4.65625 L -0.265625 -13.046875 L 2.9375 -13.046875 L 6.4375 -7.25 L 9.921875 -13.046875 L 12.875 -13.046875 Z M 7.8125 -4.625 "/></g></g></g><g fill="#22201c" fill-opacity="1"><g transform="translate(182.65625, 184.515573)"><g><path d="M 4.25 -10.59375 L 0.078125 -10.59375 L 0.078125 -13.046875 L 11.4375 -13.046875 L 11.4375 -10.59375 L 7.265625 -10.59375 L 7.265625 0 L 4.25 0 Z M 4.25 -10.59375 "/></g></g></g><g fill="#22201c" fill-opacity="1"><g transform="translate(195.856869, 184.515573)"><g><path d="M 11.65625 -2.421875 L 11.65625 0 L 1.546875 0 L 1.546875 -13.046875 L 11.40625 -13.046875 L 11.40625 -10.625 L 4.546875 -10.625 L 4.546875 -7.796875 L 10.609375 -7.796875 L 10.609375 -5.4375 L 4.546875 -5.4375 L 4.546875 -2.421875 Z M 11.65625 -2.421875 "/></g></g></g><g fill="#22201c" fill-opacity="1"><g transform="translate(210.04565, 184.515573)"><g><path d="M 11.65625 -2.421875 L 11.65625 0 L 1.546875 0 L 1.546875 -13.046875 L 11.40625 -13.046875 L 11.40625 -10.625 L 4.546875 -10.625 L 4.546875 -7.796875 L 10.609375 -7.796875 L 10.609375 -5.4375 L 4.546875 -5.4375 L 4.546875 -2.421875 Z M 11.65625 -2.421875 "/></g></g></g></svg>