<svg xmlns="http://www.w3.org/2000/svg" xmlns:xlink="http://www.w3.org/1999/xlink" width="500" zoomAndPan="magnify" viewBox="0 0 375 374.999991" height="500" preserveAspectRatio="xMidYMid meet" version="1.0"><defs><g/><clipPath id="e0a60e7008"><path d="M 154.921875 127.371094 L 220.171875 127.371094 L 220.171875 192.621094 L 154.921875 192.621094 Z M 154.921875 127.371094 " clip-rule="nonzero"/></clipPath></defs><rect x="-37.5" width="450" fill="#ffffff" y="-37.499999" height="449.999989" fill-opacity="1"/><rect x="-37.5" width="450" fill="#5e17eb" y="-37.499999" height="449.999989" fill-opacity="1"/><g clip-path="url(#e0a60e7008)"><path fill="#ffffff" d="M 220.136719 151.460938 L 220.136719 149.613281 C 220.121094 149.527344 220.113281 149.441406 220.109375 149.355469 C 220.085938 149.28125 220.0625 149.175781 220.058594 149.160156 L 220.097656 149.121094 L 220.097656 149.007812 C 220.097656 149.007812 220.050781 148.828125 220.046875 148.8125 L 220.066406 148.792969 L 219.902344 148.886719 L 219.691406 148.613281 C 219.628906 148.574219 219.394531 148.371094 219.335938 148.316406 L 188.347656 127.648438 C 188.101562 127.488281 187.835938 127.40625 187.542969 127.40625 C 187.253906 127.40625 186.984375 127.488281 186.742188 127.648438 L 155.601562 148.40625 L 155.359375 148.609375 C 155.328125 148.667969 155.183594 148.851562 155.144531 148.90625 C 155.109375 149.023438 155.054688 149.128906 154.976562 149.222656 L 154.976562 149.289062 L 154.960938 151.453125 L 154.960938 170.375 L 155.007812 170.722656 C 155.074219 170.859375 155.128906 170.996094 155.171875 171.140625 C 155.195312 171.164062 155.390625 171.398438 155.414062 171.421875 C 155.546875 171.511719 155.667969 171.609375 155.785156 171.71875 L 186.75 192.34375 C 186.996094 192.5 187.261719 192.578125 187.554688 192.578125 C 187.847656 192.578125 188.113281 192.5 188.359375 192.34375 L 219.5 171.582031 L 219.738281 171.378906 C 219.792969 171.292969 219.855469 171.214844 219.921875 171.136719 C 219.941406 171.089844 220.050781 170.886719 220.078125 170.839844 C 220.105469 170.792969 220.105469 170.699219 220.125 170.621094 C 220.128906 170.574219 220.136719 170.527344 220.148438 170.480469 Z M 188.996094 147.605469 L 188.996094 133.957031 C 188.996094 133.679688 189.066406 133.425781 189.207031 133.191406 C 189.347656 132.957031 189.539062 132.773438 189.78125 132.644531 C 190.019531 132.515625 190.277344 132.460938 190.550781 132.472656 C 190.824219 132.488281 191.074219 132.570312 191.304688 132.722656 L 214.238281 148.019531 C 214.679688 148.3125 214.898438 148.722656 214.898438 149.253906 C 214.890625 149.316406 214.871094 149.378906 214.851562 149.4375 C 214.871094 149.496094 214.886719 149.558594 214.898438 149.617188 C 214.898438 150.148438 214.679688 150.558594 214.238281 150.851562 L 203.992188 157.703125 C 203.742188 157.871094 203.46875 157.953125 203.167969 157.953125 C 202.867188 157.953125 202.59375 157.871094 202.34375 157.703125 L 189.644531 149.21875 C 189.203125 148.925781 188.984375 148.511719 188.984375 147.984375 Z M 160.195312 149.246094 C 160.199219 148.71875 160.417969 148.3125 160.851562 148.019531 L 183.796875 132.710938 C 184.023438 132.558594 184.273438 132.472656 184.546875 132.460938 C 184.820312 132.449219 185.078125 132.503906 185.320312 132.632812 C 185.5625 132.761719 185.753906 132.945312 185.894531 133.179688 C 186.035156 133.414062 186.105469 133.667969 186.105469 133.945312 L 186.105469 147.984375 C 186.105469 148.511719 185.882812 148.925781 185.441406 149.21875 L 172.746094 157.703125 C 172.496094 157.871094 172.222656 157.953125 171.921875 157.953125 C 171.625 157.953125 171.347656 157.871094 171.101562 157.703125 L 160.851562 150.851562 C 160.410156 150.558594 160.1875 150.148438 160.183594 149.613281 C 160.195312 149.554688 160.214844 149.492188 160.234375 149.433594 C 160.210938 149.375 160.195312 149.316406 160.183594 149.253906 Z M 159.335938 166.371094 C 159.140625 166.371094 158.953125 166.335938 158.769531 166.257812 C 158.585938 166.183594 158.425781 166.078125 158.289062 165.9375 C 158.148438 165.800781 158.042969 165.640625 157.96875 165.457031 C 157.890625 165.277344 157.855469 165.085938 157.855469 164.890625 L 157.855469 155.101562 C 157.851562 154.828125 157.921875 154.574219 158.0625 154.335938 C 158.207031 154.101562 158.398438 153.921875 158.636719 153.789062 C 158.878906 153.660156 159.136719 153.605469 159.414062 153.617188 C 159.6875 153.632812 159.9375 153.714844 160.164062 153.867188 L 167.492188 158.769531 C 167.921875 159.0625 168.136719 159.472656 168.136719 159.996094 C 168.136719 160.523438 167.917969 160.9375 167.476562 161.230469 L 160.152344 166.128906 C 159.902344 166.296875 159.625 166.378906 159.324219 166.382812 Z M 186.117188 185.652344 C 186.117188 185.847656 186.078125 186.035156 186.003906 186.21875 C 185.929688 186.398438 185.820312 186.5625 185.683594 186.699219 C 185.542969 186.839844 185.382812 186.945312 185.199219 187.019531 C 185.019531 187.097656 184.828125 187.132812 184.632812 187.132812 C 184.332031 187.136719 184.058594 187.050781 183.808594 186.886719 L 160.851562 171.609375 C 160.75 171.539062 160.660156 171.460938 160.578125 171.371094 C 160.496094 171.28125 160.425781 171.179688 160.367188 171.074219 C 160.308594 170.964844 160.265625 170.851562 160.238281 170.734375 C 160.207031 170.617188 160.191406 170.496094 160.191406 170.375 C 160.191406 170.25 160.207031 170.132812 160.238281 170.011719 C 160.265625 169.894531 160.308594 169.78125 160.367188 169.675781 C 160.425781 169.566406 160.496094 169.46875 160.578125 169.375 C 160.660156 169.285156 160.75 169.207031 160.851562 169.140625 L 171.105469 162.289062 C 171.355469 162.121094 171.632812 162.039062 171.933594 162.039062 C 172.234375 162.039062 172.507812 162.121094 172.757812 162.289062 L 185.453125 170.785156 C 185.894531 171.078125 186.113281 171.492188 186.113281 172.019531 Z M 187.546875 168.410156 C 187.246094 168.410156 186.972656 168.324219 186.722656 168.160156 L 176.363281 161.234375 C 175.925781 160.9375 175.707031 160.523438 175.707031 159.996094 C 175.71875 159.933594 175.734375 159.871094 175.753906 159.8125 C 175.734375 159.75 175.71875 159.6875 175.707031 159.625 C 175.707031 159.097656 175.925781 158.6875 176.363281 158.390625 L 186.722656 151.464844 C 186.972656 151.296875 187.246094 151.214844 187.546875 151.214844 C 187.84375 151.214844 188.121094 151.296875 188.371094 151.464844 L 198.730469 158.390625 C 199.167969 158.683594 199.390625 159.097656 199.386719 159.625 C 199.378906 159.6875 199.359375 159.75 199.339844 159.8125 C 199.359375 159.871094 199.378906 159.933594 199.386719 159.996094 C 199.390625 160.523438 199.167969 160.9375 198.730469 161.230469 L 188.371094 168.15625 C 188.121094 168.324219 187.84375 168.40625 187.546875 168.410156 Z M 214.238281 171.609375 L 191.289062 186.898438 C 191.039062 187.066406 190.765625 187.152344 190.464844 187.148438 C 190.265625 187.148438 190.078125 187.109375 189.898438 187.035156 C 189.714844 186.960938 189.554688 186.851562 189.414062 186.714844 C 189.277344 186.574219 189.167969 186.414062 189.09375 186.234375 C 189.019531 186.050781 188.980469 185.863281 188.980469 185.664062 L 188.980469 172.023438 C 188.980469 171.492188 189.199219 171.082031 189.640625 170.789062 L 202.34375 162.292969 C 202.59375 162.125 202.867188 162.039062 203.167969 162.039062 C 203.46875 162.039062 203.746094 162.125 203.996094 162.292969 L 214.238281 169.140625 C 214.339844 169.207031 214.433594 169.285156 214.515625 169.375 C 214.597656 169.46875 214.667969 169.566406 214.722656 169.675781 C 214.78125 169.78125 214.824219 169.894531 214.855469 170.011719 C 214.882812 170.132812 214.898438 170.25 214.898438 170.375 C 214.898438 170.496094 214.882812 170.617188 214.855469 170.734375 C 214.824219 170.851562 214.78125 170.964844 214.722656 171.074219 C 214.667969 171.179688 214.597656 171.28125 214.515625 171.371094 C 214.433594 171.460938 214.339844 171.539062 214.238281 171.609375 Z M 217.242188 164.898438 C 217.242188 165.09375 217.207031 165.285156 217.128906 165.464844 C 217.054688 165.648438 216.949219 165.808594 216.808594 165.945312 C 216.671875 166.085938 216.507812 166.195312 216.328125 166.269531 C 216.144531 166.34375 215.957031 166.382812 215.761719 166.382812 C 215.457031 166.378906 215.183594 166.296875 214.933594 166.125 L 207.613281 161.226562 C 207.511719 161.160156 207.421875 161.078125 207.339844 160.988281 C 207.261719 160.898438 207.191406 160.800781 207.132812 160.695312 C 207.078125 160.585938 207.035156 160.472656 207.003906 160.355469 C 206.976562 160.238281 206.960938 160.121094 206.960938 160 C 206.960938 159.878906 206.976562 159.757812 207.003906 159.640625 C 207.035156 159.523438 207.078125 159.410156 207.132812 159.304688 C 207.191406 159.195312 207.261719 159.097656 207.339844 159.007812 C 207.421875 158.917969 207.511719 158.839844 207.613281 158.769531 L 214.933594 153.867188 C 215.160156 153.710938 215.410156 153.628906 215.683594 153.617188 C 215.957031 153.601562 216.214844 153.660156 216.457031 153.789062 C 216.699219 153.917969 216.890625 154.097656 217.03125 154.335938 C 217.171875 154.570312 217.242188 154.824219 217.242188 155.097656 Z M 217.242188 164.898438 " fill-opacity="1" fill-rule="nonzero"/></g><g fill="#ffffff" fill-opacity="1"><g transform="translate(152.854213, 243.879126)"><g><path d="M 4.640625 0.125 C 3.847656 0.125 3.082031 0.00390625 2.34375 -0.234375 C 1.613281 -0.484375 1.035156 -0.804688 0.609375 -1.203125 L 1.171875 -2.375 C 1.566406 -2.007812 2.078125 -1.710938 2.703125 -1.484375 C 3.328125 -1.265625 3.972656 -1.15625 4.640625 -1.15625 C 5.503906 -1.15625 6.148438 -1.300781 6.578125 -1.59375 C 7.015625 -1.894531 7.234375 -2.289062 7.234375 -2.78125 C 7.234375 -3.132812 7.113281 -3.421875 6.875 -3.640625 C 6.644531 -3.867188 6.351562 -4.039062 6 -4.15625 C 5.65625 -4.28125 5.171875 -4.421875 4.546875 -4.578125 C 3.753906 -4.765625 3.113281 -4.953125 2.625 -5.140625 C 2.144531 -5.335938 1.734375 -5.628906 1.390625 -6.015625 C 1.046875 -6.410156 0.875 -6.945312 0.875 -7.625 C 0.875 -8.175781 1.019531 -8.675781 1.3125 -9.125 C 1.601562 -9.582031 2.050781 -9.945312 2.65625 -10.21875 C 3.257812 -10.488281 4.003906 -10.625 4.890625 -10.625 C 5.503906 -10.625 6.113281 -10.539062 6.71875 -10.375 C 7.320312 -10.21875 7.835938 -9.988281 8.265625 -9.6875 L 7.765625 -8.484375 C 7.328125 -8.765625 6.859375 -8.976562 6.359375 -9.125 C 5.859375 -9.269531 5.367188 -9.34375 4.890625 -9.34375 C 4.035156 -9.34375 3.394531 -9.1875 2.96875 -8.875 C 2.550781 -8.570312 2.34375 -8.175781 2.34375 -7.6875 C 2.34375 -7.320312 2.460938 -7.023438 2.703125 -6.796875 C 2.941406 -6.578125 3.238281 -6.40625 3.59375 -6.28125 C 3.945312 -6.15625 4.429688 -6.019531 5.046875 -5.875 C 5.828125 -5.6875 6.457031 -5.5 6.9375 -5.3125 C 7.425781 -5.125 7.84375 -4.832031 8.1875 -4.4375 C 8.53125 -4.050781 8.703125 -3.523438 8.703125 -2.859375 C 8.703125 -2.316406 8.550781 -1.816406 8.25 -1.359375 C 7.945312 -0.898438 7.488281 -0.535156 6.875 -0.265625 C 6.269531 -0.00390625 5.523438 0.125 4.640625 0.125 Z M 4.640625 0.125 "/></g></g></g><g fill="#ffffff" fill-opacity="1"><g transform="translate(164.1042, 243.879126)"><g><path d="M 3.65625 -9.1875 L 0.0625 -9.1875 L 0.0625 -10.5 L 8.75 -10.5 L 8.75 -9.1875 L 5.140625 -9.1875 L 5.140625 0 L 3.65625 0 Z M 3.65625 -9.1875 "/></g></g></g><g fill="#ffffff" fill-opacity="1"><g transform="translate(174.844192, 243.879126)"><g><path d="M 5.921875 0.125 C 4.523438 0.125 3.4375 -0.273438 2.65625 -1.078125 C 1.875 -1.878906 1.484375 -3.03125 1.484375 -4.53125 L 1.484375 -10.5 L 2.984375 -10.5 L 2.984375 -4.59375 C 2.984375 -2.34375 3.96875 -1.21875 5.9375 -1.21875 C 6.894531 -1.21875 7.628906 -1.492188 8.140625 -2.046875 C 8.648438 -2.597656 8.90625 -3.445312 8.90625 -4.59375 L 8.90625 -10.5 L 10.359375 -10.5 L 10.359375 -4.53125 C 10.359375 -3.019531 9.96875 -1.863281 9.1875 -1.0625 C 8.414062 -0.269531 7.328125 0.125 5.921875 0.125 Z M 5.921875 0.125 "/></g></g></g><g fill="#ffffff" fill-opacity="1"><g transform="translate(188.644183, 243.879126)"><g><path d="M 1.578125 -10.5 L 6 -10.5 C 7.113281 -10.5 8.097656 -10.28125 8.953125 -9.84375 C 9.816406 -9.40625 10.484375 -8.785156 10.953125 -7.984375 C 11.429688 -7.191406 11.671875 -6.28125 11.671875 -5.25 C 11.671875 -4.21875 11.429688 -3.300781 10.953125 -2.5 C 10.484375 -1.707031 9.816406 -1.09375 8.953125 -0.65625 C 8.097656 -0.21875 7.113281 0 6 0 L 1.578125 0 Z M 5.90625 -1.3125 C 6.757812 -1.3125 7.507812 -1.472656 8.15625 -1.796875 C 8.800781 -2.128906 9.296875 -2.59375 9.640625 -3.1875 C 9.992188 -3.78125 10.171875 -4.46875 10.171875 -5.25 C 10.171875 -6.03125 9.992188 -6.71875 9.640625 -7.3125 C 9.296875 -7.90625 8.800781 -8.363281 8.15625 -8.6875 C 7.507812 -9.019531 6.757812 -9.1875 5.90625 -9.1875 L 3.078125 -9.1875 L 3.078125 -1.3125 Z M 5.90625 -1.3125 "/></g></g></g><g fill="#ffffff" fill-opacity="1"><g transform="translate(202.969175, 243.879126)"><g><path d="M 1.578125 -10.5 L 3.078125 -10.5 L 3.078125 0 L 1.578125 0 Z M 1.578125 -10.5 "/></g></g></g><g fill="#ffffff" fill-opacity="1"><g transform="translate(209.554174, 243.879126)"><g><path d="M 6.3125 0.125 C 5.25 0.125 4.289062 -0.109375 3.4375 -0.578125 C 2.59375 -1.046875 1.925781 -1.6875 1.4375 -2.5 C 0.957031 -3.320312 0.71875 -4.238281 0.71875 -5.25 C 0.71875 -6.257812 0.957031 -7.171875 1.4375 -7.984375 C 1.925781 -8.804688 2.59375 -9.453125 3.4375 -9.921875 C 4.289062 -10.390625 5.25 -10.625 6.3125 -10.625 C 7.363281 -10.625 8.3125 -10.390625 9.15625 -9.921875 C 10.007812 -9.453125 10.675781 -8.8125 11.15625 -8 C 11.632812 -7.1875 11.875 -6.269531 11.875 -5.25 C 11.875 -4.226562 11.632812 -3.3125 11.15625 -2.5 C 10.675781 -1.6875 10.007812 -1.046875 9.15625 -0.578125 C 8.3125 -0.109375 7.363281 0.125 6.3125 0.125 Z M 6.3125 -1.21875 C 7.082031 -1.21875 7.773438 -1.390625 8.390625 -1.734375 C 9.003906 -2.085938 9.488281 -2.570312 9.84375 -3.1875 C 10.195312 -3.800781 10.375 -4.488281 10.375 -5.25 C 10.375 -6.007812 10.195312 -6.695312 9.84375 -7.3125 C 9.488281 -7.925781 9.003906 -8.40625 8.390625 -8.75 C 7.773438 -9.101562 7.082031 -9.28125 6.3125 -9.28125 C 5.539062 -9.28125 4.84375 -9.101562 4.21875 -8.75 C 3.59375 -8.40625 3.101562 -7.925781 2.75 -7.3125 C 2.394531 -6.695312 2.21875 -6.007812 2.21875 -5.25 C 2.21875 -4.488281 2.394531 -3.800781 2.75 -3.1875 C 3.101562 -2.570312 3.59375 -2.085938 4.21875 -1.734375 C 4.84375 -1.390625 5.539062 -1.21875 6.3125 -1.21875 Z M 6.3125 -1.21875 "/></g></g></g><g fill="#ffffff" fill-opacity="1"><g transform="translate(152.43288, 221.510258)"><g><path d="M 11.125 -6.78125 C 11.875 -6.550781 12.457031 -6.15625 12.875 -5.59375 C 13.300781 -5.039062 13.515625 -4.363281 13.515625 -3.5625 C 13.515625 -2.414062 13.066406 -1.535156 12.171875 -0.921875 C 11.285156 -0.304688 9.992188 0 8.296875 0 L 1.546875 0 L 1.546875 -13.046875 L 7.921875 -13.046875 C 9.515625 -13.046875 10.734375 -12.738281 11.578125 -12.125 C 12.429688 -11.519531 12.859375 -10.695312 12.859375 -9.65625 C 12.859375 -9.019531 12.707031 -8.453125 12.40625 -7.953125 C 12.101562 -7.460938 11.675781 -7.070312 11.125 -6.78125 Z M 4.546875 -10.78125 L 4.546875 -7.703125 L 7.546875 -7.703125 C 8.296875 -7.703125 8.863281 -7.832031 9.25 -8.09375 C 9.632812 -8.351562 9.828125 -8.738281 9.828125 -9.25 C 9.828125 -9.757812 9.632812 -10.140625 9.25 -10.390625 C 8.863281 -10.648438 8.296875 -10.78125 7.546875 -10.78125 Z M 8.078125 -2.28125 C 8.867188 -2.28125 9.460938 -2.410156 9.859375 -2.671875 C 10.265625 -2.929688 10.46875 -3.332031 10.46875 -3.875 C 10.46875 -4.957031 9.671875 -5.5 8.078125 -5.5 L 4.546875 -5.5 L 4.546875 -2.28125 Z M 8.078125 -2.28125 "/></g></g></g><g fill="#ffffff" fill-opacity="1"><g transform="translate(168.374245, 221.510258)"><g><path d="M 7.8125 -4.625 L 7.8125 0 L 4.796875 0 L 4.796875 -4.65625 L -0.265625 -13.046875 L 2.9375 -13.046875 L 6.4375 -7.25 L 9.921875 -13.046875 L 12.875 -13.046875 Z M 7.8125 -4.625 "/></g></g></g><g fill="#ffffff" fill-opacity="1"><g transform="translate(182.65625, 221.510258)"><g><path d="M 4.25 -10.59375 L 0.078125 -10.59375 L 0.078125 -13.046875 L 11.4375 -13.046875 L 11.4375 -10.59375 L 7.265625 -10.59375 L 7.265625 0 L 4.25 0 Z M 4.25 -10.59375 "/></g></g></g><g fill="#ffffff" fill-opacity="1"><g transform="translate(195.856869, 221.510258)"><g><path d="M 11.65625 -2.421875 L 11.65625 0 L 1.546875 0 L 1.546875 -13.046875 L 11.40625 -13.046875 L 11.40625 -10.625 L 4.546875 -10.625 L 4.546875 -7.796875 L 10.609375 -7.796875 L 10.609375 -5.4375 L 4.546875 -5.4375 L 4.546875 -2.421875 Z M 11.65625 -2.421875 "/></g></g></g><g fill="#ffffff" fill-opacity="1"><g transform="translate(210.04565, 221.510258)"><g><path d="M 11.65625 -2.421875 L 11.65625 0 L 1.546875 0 L 1.546875 -13.046875 L 11.40625 -13.046875 L 11.40625 -10.625 L 4.546875 -10.625 L 4.546875 -7.796875 L 10.609375 -7.796875 L 10.609375 -5.4375 L 4.546875 -5.4375 L 4.546875 -2.421875 Z M 11.65625 -2.421875 "/></g></g></g></svg>