<svg xmlns="http://www.w3.org/2000/svg" xmlns:xlink="http://www.w3.org/1999/xlink" width="500" zoomAndPan="magnify" viewBox="0 0 375 374.999991" height="500" preserveAspectRatio="xMidYMid meet" version="1.0"><defs><g/><clipPath id="3f4a7709d6"><path d="M 87.007812 176.691406 L 152.257812 176.691406 L 152.257812 241.941406 L 87.007812 241.941406 Z M 87.007812 176.691406 " clip-rule="nonzero"/></clipPath></defs><rect x="-37.5" width="450" fill="#ffffff" y="-37.499999" height="449.999989" fill-opacity="1"/><rect x="-37.5" width="450" fill="#5e17eb" y="-37.499999" height="449.999989" fill-opacity="1"/><g clip-path="url(#3f4a7709d6)"><path fill="#ffffff" d="M 152.226562 200.78125 L 152.226562 198.9375 C 152.210938 198.847656 152.199219 198.761719 152.195312 198.675781 C 152.175781 198.601562 152.152344 198.496094 152.144531 198.480469 L 152.183594 198.441406 L 152.183594 198.328125 C 152.183594 198.328125 152.140625 198.148438 152.132812 198.132812 L 152.152344 198.113281 L 151.992188 198.207031 L 151.777344 197.933594 C 151.714844 197.894531 151.480469 197.691406 151.425781 197.636719 L 120.433594 176.96875 C 120.191406 176.808594 119.921875 176.726562 119.632812 176.726562 C 119.339844 176.726562 119.070312 176.808594 118.828125 176.96875 L 87.6875 197.726562 L 87.445312 197.929688 C 87.417969 197.988281 87.269531 198.171875 87.234375 198.226562 C 87.195312 198.34375 87.140625 198.449219 87.0625 198.542969 L 87.0625 198.609375 L 87.046875 200.773438 L 87.046875 219.695312 L 87.09375 220.042969 C 87.160156 220.179688 87.214844 220.320312 87.257812 220.460938 C 87.285156 220.484375 87.476562 220.71875 87.5 220.742188 C 87.632812 220.832031 87.753906 220.929688 87.871094 221.039062 L 118.835938 241.664062 C 119.082031 241.820312 119.351562 241.898438 119.640625 241.898438 C 119.933594 241.898438 120.199219 241.820312 120.445312 241.664062 L 151.585938 220.902344 L 151.824219 220.699219 C 151.882812 220.613281 151.941406 220.535156 152.007812 220.457031 C 152.027344 220.410156 152.140625 220.207031 152.164062 220.160156 C 152.191406 220.113281 152.191406 220.019531 152.210938 219.941406 C 152.214844 219.894531 152.222656 219.847656 152.234375 219.800781 Z M 121.082031 196.925781 L 121.082031 183.277344 C 121.082031 183 121.152344 182.746094 121.292969 182.511719 C 121.433594 182.277344 121.625 182.097656 121.867188 181.964844 C 122.109375 181.835938 122.367188 181.78125 122.640625 181.792969 C 122.914062 181.808594 123.164062 181.890625 123.390625 182.042969 L 146.324219 197.339844 C 146.765625 197.632812 146.988281 198.042969 146.988281 198.574219 C 146.976562 198.636719 146.960938 198.699219 146.941406 198.757812 C 146.960938 198.816406 146.976562 198.878906 146.988281 198.9375 C 146.988281 199.46875 146.765625 199.878906 146.324219 200.171875 L 136.078125 207.023438 C 135.828125 207.191406 135.554688 207.273438 135.253906 207.273438 C 134.953125 207.273438 134.679688 207.191406 134.429688 207.023438 L 121.730469 198.539062 C 121.292969 198.246094 121.070312 197.832031 121.070312 197.304688 Z M 92.285156 198.566406 C 92.285156 198.039062 92.503906 197.632812 92.9375 197.339844 L 115.882812 182.03125 C 116.109375 181.878906 116.363281 181.792969 116.636719 181.78125 C 116.910156 181.769531 117.164062 181.824219 117.40625 181.953125 C 117.648438 182.082031 117.839844 182.265625 117.980469 182.5 C 118.121094 182.734375 118.191406 182.988281 118.191406 183.265625 L 118.191406 197.304688 C 118.191406 197.832031 117.96875 198.246094 117.53125 198.539062 L 104.832031 207.023438 C 104.582031 207.191406 104.308594 207.273438 104.007812 207.273438 C 103.710938 207.273438 103.4375 207.191406 103.1875 207.023438 L 92.9375 200.171875 C 92.496094 199.878906 92.273438 199.46875 92.273438 198.9375 C 92.285156 198.875 92.300781 198.8125 92.320312 198.753906 C 92.300781 198.695312 92.285156 198.636719 92.273438 198.574219 Z M 91.421875 215.691406 C 91.226562 215.691406 91.039062 215.65625 90.855469 215.582031 C 90.675781 215.503906 90.515625 215.398438 90.375 215.257812 C 90.234375 215.121094 90.128906 214.960938 90.054688 214.777344 C 89.976562 214.597656 89.941406 214.40625 89.941406 214.210938 L 89.941406 204.421875 C 89.941406 204.148438 90.011719 203.894531 90.152344 203.65625 C 90.292969 203.421875 90.484375 203.242188 90.726562 203.109375 C 90.96875 202.980469 91.226562 202.925781 91.5 202.9375 C 91.773438 202.953125 92.023438 203.035156 92.25 203.1875 L 99.578125 208.089844 C 100.007812 208.382812 100.226562 208.792969 100.222656 209.316406 C 100.222656 209.84375 100.003906 210.257812 99.566406 210.550781 L 92.238281 215.449219 C 91.988281 215.617188 91.710938 215.699219 91.410156 215.703125 Z M 118.203125 234.972656 C 118.203125 235.167969 118.164062 235.355469 118.089844 235.539062 C 118.015625 235.71875 117.90625 235.882812 117.769531 236.019531 C 117.628906 236.160156 117.46875 236.265625 117.289062 236.339844 C 117.105469 236.417969 116.917969 236.453125 116.71875 236.453125 C 116.417969 236.457031 116.144531 236.371094 115.894531 236.207031 L 92.9375 220.929688 C 92.835938 220.859375 92.746094 220.78125 92.664062 220.691406 C 92.582031 220.601562 92.511719 220.5 92.453125 220.394531 C 92.398438 220.285156 92.351562 220.171875 92.324219 220.054688 C 92.292969 219.9375 92.277344 219.816406 92.277344 219.695312 C 92.277344 219.570312 92.292969 219.453125 92.324219 219.332031 C 92.351562 219.214844 92.398438 219.101562 92.453125 218.996094 C 92.511719 218.886719 92.582031 218.789062 92.664062 218.699219 C 92.746094 218.605469 92.835938 218.527344 92.9375 218.460938 L 103.191406 211.609375 C 103.441406 211.441406 103.71875 211.359375 104.019531 211.359375 C 104.320312 211.359375 104.59375 211.441406 104.84375 211.609375 L 117.542969 220.105469 C 117.980469 220.398438 118.199219 220.8125 118.199219 221.339844 Z M 119.632812 217.730469 C 119.332031 217.730469 119.058594 217.644531 118.808594 217.480469 L 108.449219 210.554688 C 108.011719 210.257812 107.792969 209.84375 107.796875 209.316406 C 107.804688 209.253906 107.820312 209.191406 107.839844 209.132812 C 107.820312 209.070312 107.804688 209.007812 107.796875 208.945312 C 107.792969 208.417969 108.011719 208.007812 108.449219 207.710938 L 118.808594 200.785156 C 119.058594 200.617188 119.332031 200.535156 119.632812 200.535156 C 119.933594 200.535156 120.207031 200.617188 120.457031 200.785156 L 130.816406 207.710938 C 131.257812 208.003906 131.476562 208.417969 131.476562 208.945312 C 131.464844 209.007812 131.449219 209.070312 131.429688 209.132812 C 131.449219 209.191406 131.464844 209.253906 131.476562 209.316406 C 131.476562 209.84375 131.257812 210.257812 130.816406 210.550781 L 120.457031 217.476562 C 120.207031 217.644531 119.933594 217.726562 119.632812 217.730469 Z M 146.324219 220.929688 L 123.375 236.21875 C 123.125 236.386719 122.851562 236.472656 122.550781 236.46875 C 122.355469 236.46875 122.164062 236.429688 121.984375 236.355469 C 121.800781 236.28125 121.640625 236.175781 121.503906 236.035156 C 121.363281 235.894531 121.257812 235.734375 121.179688 235.554688 C 121.105469 235.371094 121.066406 235.183594 121.066406 234.984375 L 121.066406 221.34375 C 121.066406 220.8125 121.285156 220.402344 121.726562 220.109375 L 134.429688 211.613281 C 134.679688 211.445312 134.953125 211.359375 135.253906 211.359375 C 135.554688 211.359375 135.832031 211.445312 136.082031 211.613281 L 146.324219 218.460938 C 146.425781 218.527344 146.519531 218.605469 146.601562 218.699219 C 146.683594 218.789062 146.753906 218.886719 146.808594 218.996094 C 146.867188 219.101562 146.910156 219.214844 146.941406 219.332031 C 146.972656 219.453125 146.984375 219.570312 146.984375 219.695312 C 146.984375 219.816406 146.972656 219.9375 146.941406 220.054688 C 146.910156 220.171875 146.867188 220.285156 146.808594 220.394531 C 146.753906 220.5 146.683594 220.601562 146.601562 220.691406 C 146.519531 220.78125 146.425781 220.859375 146.324219 220.929688 Z M 149.328125 214.21875 C 149.328125 214.414062 149.292969 214.605469 149.21875 214.785156 C 149.140625 214.96875 149.035156 215.128906 148.894531 215.265625 C 148.757812 215.40625 148.597656 215.515625 148.414062 215.589844 C 148.234375 215.664062 148.042969 215.703125 147.847656 215.703125 C 147.546875 215.699219 147.269531 215.617188 147.019531 215.445312 L 139.699219 210.546875 C 139.597656 210.480469 139.507812 210.398438 139.429688 210.308594 C 139.347656 210.21875 139.277344 210.121094 139.222656 210.015625 C 139.164062 209.90625 139.121094 209.796875 139.09375 209.675781 C 139.0625 209.558594 139.046875 209.441406 139.046875 209.320312 C 139.046875 209.199219 139.0625 209.078125 139.09375 208.960938 C 139.121094 208.84375 139.164062 208.730469 139.222656 208.625 C 139.277344 208.515625 139.347656 208.417969 139.429688 208.328125 C 139.507812 208.238281 139.597656 208.160156 139.699219 208.089844 L 147.019531 203.1875 C 147.246094 203.03125 147.496094 202.949219 147.769531 202.9375 C 148.042969 202.921875 148.300781 202.980469 148.542969 203.109375 C 148.785156 203.238281 148.976562 203.417969 149.117188 203.65625 C 149.261719 203.890625 149.332031 204.144531 149.328125 204.417969 Z M 149.328125 214.21875 " fill-opacity="1" fill-rule="nonzero"/></g><g fill="#ffffff" fill-opacity="1"><g transform="translate(161.712481, 223.520493)"><g><path d="M 4.640625 0.125 C 3.847656 0.125 3.082031 0.00390625 2.34375 -0.234375 C 1.613281 -0.484375 1.035156 -0.804688 0.609375 -1.203125 L 1.171875 -2.375 C 1.566406 -2.007812 2.078125 -1.710938 2.703125 -1.484375 C 3.328125 -1.265625 3.972656 -1.15625 4.640625 -1.15625 C 5.503906 -1.15625 6.148438 -1.300781 6.578125 -1.59375 C 7.015625 -1.894531 7.234375 -2.289062 7.234375 -2.78125 C 7.234375 -3.132812 7.113281 -3.421875 6.875 -3.640625 C 6.644531 -3.867188 6.351562 -4.039062 6 -4.15625 C 5.65625 -4.28125 5.171875 -4.421875 4.546875 -4.578125 C 3.753906 -4.765625 3.113281 -4.953125 2.625 -5.140625 C 2.144531 -5.335938 1.734375 -5.628906 1.390625 -6.015625 C 1.046875 -6.410156 0.875 -6.945312 0.875 -7.625 C 0.875 -8.175781 1.019531 -8.675781 1.3125 -9.125 C 1.601562 -9.582031 2.050781 -9.945312 2.65625 -10.21875 C 3.257812 -10.488281 4.003906 -10.625 4.890625 -10.625 C 5.503906 -10.625 6.113281 -10.539062 6.71875 -10.375 C 7.320312 -10.21875 7.835938 -9.988281 8.265625 -9.6875 L 7.765625 -8.484375 C 7.328125 -8.765625 6.859375 -8.976562 6.359375 -9.125 C 5.859375 -9.269531 5.367188 -9.34375 4.890625 -9.34375 C 4.035156 -9.34375 3.394531 -9.1875 2.96875 -8.875 C 2.550781 -8.570312 2.34375 -8.175781 2.34375 -7.6875 C 2.34375 -7.320312 2.460938 -7.023438 2.703125 -6.796875 C 2.941406 -6.578125 3.238281 -6.40625 3.59375 -6.28125 C 3.945312 -6.15625 4.429688 -6.019531 5.046875 -5.875 C 5.828125 -5.6875 6.457031 -5.5 6.9375 -5.3125 C 7.425781 -5.125 7.84375 -4.832031 8.1875 -4.4375 C 8.53125 -4.050781 8.703125 -3.523438 8.703125 -2.859375 C 8.703125 -2.316406 8.550781 -1.816406 8.25 -1.359375 C 7.945312 -0.898438 7.488281 -0.535156 6.875 -0.265625 C 6.269531 -0.00390625 5.523438 0.125 4.640625 0.125 Z M 4.640625 0.125 "/></g></g></g><g fill="#ffffff" fill-opacity="1"><g transform="translate(172.962467, 223.520493)"><g><path d="M 3.65625 -9.1875 L 0.0625 -9.1875 L 0.0625 -10.5 L 8.75 -10.5 L 8.75 -9.1875 L 5.140625 -9.1875 L 5.140625 0 L 3.65625 0 Z M 3.65625 -9.1875 "/></g></g></g><g fill="#ffffff" fill-opacity="1"><g transform="translate(183.702459, 223.520493)"><g><path d="M 5.921875 0.125 C 4.523438 0.125 3.4375 -0.273438 2.65625 -1.078125 C 1.875 -1.878906 1.484375 -3.03125 1.484375 -4.53125 L 1.484375 -10.5 L 2.984375 -10.5 L 2.984375 -4.59375 C 2.984375 -2.34375 3.96875 -1.21875 5.9375 -1.21875 C 6.894531 -1.21875 7.628906 -1.492188 8.140625 -2.046875 C 8.648438 -2.597656 8.90625 -3.445312 8.90625 -4.59375 L 8.90625 -10.5 L 10.359375 -10.5 L 10.359375 -4.53125 C 10.359375 -3.019531 9.96875 -1.863281 9.1875 -1.0625 C 8.414062 -0.269531 7.328125 0.125 5.921875 0.125 Z M 5.921875 0.125 "/></g></g></g><g fill="#ffffff" fill-opacity="1"><g transform="translate(197.502451, 223.520493)"><g><path d="M 1.578125 -10.5 L 6 -10.5 C 7.113281 -10.5 8.097656 -10.28125 8.953125 -9.84375 C 9.816406 -9.40625 10.484375 -8.785156 10.953125 -7.984375 C 11.429688 -7.191406 11.671875 -6.28125 11.671875 -5.25 C 11.671875 -4.21875 11.429688 -3.300781 10.953125 -2.5 C 10.484375 -1.707031 9.816406 -1.09375 8.953125 -0.65625 C 8.097656 -0.21875 7.113281 0 6 0 L 1.578125 0 Z M 5.90625 -1.3125 C 6.757812 -1.3125 7.507812 -1.472656 8.15625 -1.796875 C 8.800781 -2.128906 9.296875 -2.59375 9.640625 -3.1875 C 9.992188 -3.78125 10.171875 -4.46875 10.171875 -5.25 C 10.171875 -6.03125 9.992188 -6.71875 9.640625 -7.3125 C 9.296875 -7.90625 8.800781 -8.363281 8.15625 -8.6875 C 7.507812 -9.019531 6.757812 -9.1875 5.90625 -9.1875 L 3.078125 -9.1875 L 3.078125 -1.3125 Z M 5.90625 -1.3125 "/></g></g></g><g fill="#ffffff" fill-opacity="1"><g transform="translate(211.827443, 223.520493)"><g><path d="M 1.578125 -10.5 L 3.078125 -10.5 L 3.078125 0 L 1.578125 0 Z M 1.578125 -10.5 "/></g></g></g><g fill="#ffffff" fill-opacity="1"><g transform="translate(218.412442, 223.520493)"><g><path d="M 6.3125 0.125 C 5.25 0.125 4.289062 -0.109375 3.4375 -0.578125 C 2.59375 -1.046875 1.925781 -1.6875 1.4375 -2.5 C 0.957031 -3.320312 0.71875 -4.238281 0.71875 -5.25 C 0.71875 -6.257812 0.957031 -7.171875 1.4375 -7.984375 C 1.925781 -8.804688 2.59375 -9.453125 3.4375 -9.921875 C 4.289062 -10.390625 5.25 -10.625 6.3125 -10.625 C 7.363281 -10.625 8.3125 -10.390625 9.15625 -9.921875 C 10.007812 -9.453125 10.675781 -8.8125 11.15625 -8 C 11.632812 -7.1875 11.875 -6.269531 11.875 -5.25 C 11.875 -4.226562 11.632812 -3.3125 11.15625 -2.5 C 10.675781 -1.6875 10.007812 -1.046875 9.15625 -0.578125 C 8.3125 -0.109375 7.363281 0.125 6.3125 0.125 Z M 6.3125 -1.21875 C 7.082031 -1.21875 7.773438 -1.390625 8.390625 -1.734375 C 9.003906 -2.085938 9.488281 -2.570312 9.84375 -3.1875 C 10.195312 -3.800781 10.375 -4.488281 10.375 -5.25 C 10.375 -6.007812 10.195312 -6.695312 9.84375 -7.3125 C 9.488281 -7.925781 9.003906 -8.40625 8.390625 -8.75 C 7.773438 -9.101562 7.082031 -9.28125 6.3125 -9.28125 C 5.539062 -9.28125 4.84375 -9.101562 4.21875 -8.75 C 3.59375 -8.40625 3.101562 -7.925781 2.75 -7.3125 C 2.394531 -6.695312 2.21875 -6.007812 2.21875 -5.25 C 2.21875 -4.488281 2.394531 -3.800781 2.75 -3.1875 C 3.101562 -2.570312 3.59375 -2.085938 4.21875 -1.734375 C 4.84375 -1.390625 5.539062 -1.21875 6.3125 -1.21875 Z M 6.3125 -1.21875 "/></g></g></g><g fill="#ffffff" fill-opacity="1"><g transform="translate(161.291148, 205.135299)"><g><path d="M 11.125 -6.78125 C 11.875 -6.550781 12.457031 -6.15625 12.875 -5.59375 C 13.300781 -5.039062 13.515625 -4.363281 13.515625 -3.5625 C 13.515625 -2.414062 13.066406 -1.535156 12.171875 -0.921875 C 11.285156 -0.304688 9.992188 0 8.296875 0 L 1.546875 0 L 1.546875 -13.046875 L 7.921875 -13.046875 C 9.515625 -13.046875 10.734375 -12.738281 11.578125 -12.125 C 12.429688 -11.519531 12.859375 -10.695312 12.859375 -9.65625 C 12.859375 -9.019531 12.707031 -8.453125 12.40625 -7.953125 C 12.101562 -7.460938 11.675781 -7.070312 11.125 -6.78125 Z M 4.546875 -10.78125 L 4.546875 -7.703125 L 7.546875 -7.703125 C 8.296875 -7.703125 8.863281 -7.832031 9.25 -8.09375 C 9.632812 -8.351562 9.828125 -8.738281 9.828125 -9.25 C 9.828125 -9.757812 9.632812 -10.140625 9.25 -10.390625 C 8.863281 -10.648438 8.296875 -10.78125 7.546875 -10.78125 Z M 8.078125 -2.28125 C 8.867188 -2.28125 9.460938 -2.410156 9.859375 -2.671875 C 10.265625 -2.929688 10.46875 -3.332031 10.46875 -3.875 C 10.46875 -4.957031 9.671875 -5.5 8.078125 -5.5 L 4.546875 -5.5 L 4.546875 -2.28125 Z M 8.078125 -2.28125 "/></g></g></g><g fill="#ffffff" fill-opacity="1"><g transform="translate(177.232512, 205.135299)"><g><path d="M 7.8125 -4.625 L 7.8125 0 L 4.796875 0 L 4.796875 -4.65625 L -0.265625 -13.046875 L 2.9375 -13.046875 L 6.4375 -7.25 L 9.921875 -13.046875 L 12.875 -13.046875 Z M 7.8125 -4.625 "/></g></g></g><g fill="#ffffff" fill-opacity="1"><g transform="translate(191.514518, 205.135299)"><g><path d="M 4.25 -10.59375 L 0.078125 -10.59375 L 0.078125 -13.046875 L 11.4375 -13.046875 L 11.4375 -10.59375 L 7.265625 -10.59375 L 7.265625 0 L 4.25 0 Z M 4.25 -10.59375 "/></g></g></g><g fill="#ffffff" fill-opacity="1"><g transform="translate(204.715136, 205.135299)"><g><path d="M 11.65625 -2.421875 L 11.65625 0 L 1.546875 0 L 1.546875 -13.046875 L 11.40625 -13.046875 L 11.40625 -10.625 L 4.546875 -10.625 L 4.546875 -7.796875 L 10.609375 -7.796875 L 10.609375 -5.4375 L 4.546875 -5.4375 L 4.546875 -2.421875 Z M 11.65625 -2.421875 "/></g></g></g><g fill="#ffffff" fill-opacity="1"><g transform="translate(218.903918, 205.135299)"><g><path d="M 11.65625 -2.421875 L 11.65625 0 L 1.546875 0 L 1.546875 -13.046875 L 11.40625 -13.046875 L 11.40625 -10.625 L 4.546875 -10.625 L 4.546875 -7.796875 L 10.609375 -7.796875 L 10.609375 -5.4375 L 4.546875 -5.4375 L 4.546875 -2.421875 Z M 11.65625 -2.421875 "/></g></g></g></svg>