<svg xmlns="http://www.w3.org/2000/svg" xmlns:xlink="http://www.w3.org/1999/xlink" width="500" zoomAndPan="magnify" viewBox="0 0 375 374.999991" height="500" preserveAspectRatio="xMidYMid meet" version="1.0"><defs><g/><clipPath id="81c25f513a"><path d="M 154.921875 122.339844 L 220.171875 122.339844 L 220.171875 187.589844 L 154.921875 187.589844 Z M 154.921875 122.339844 " clip-rule="nonzero"/></clipPath></defs><rect x="-37.5" width="450" fill="#ffffff" y="-37.499999" height="449.999989" fill-opacity="1"/><rect x="-37.5" width="450" fill="#22201c" y="-37.499999" height="449.999989" fill-opacity="1"/><g clip-path="url(#81c25f513a)"><path fill="#5e17eb" d="M 220.136719 146.429688 L 220.136719 144.585938 C 220.121094 144.5 220.113281 144.414062 220.109375 144.324219 C 220.085938 144.25 220.0625 144.148438 220.058594 144.128906 L 220.097656 144.09375 L 220.097656 143.976562 C 220.097656 143.976562 220.050781 143.800781 220.046875 143.78125 L 220.066406 143.765625 L 219.902344 143.855469 L 219.691406 143.582031 C 219.628906 143.542969 219.394531 143.339844 219.335938 143.285156 L 188.347656 122.617188 C 188.101562 122.457031 187.835938 122.378906 187.542969 122.378906 C 187.253906 122.378906 186.984375 122.457031 186.742188 122.617188 L 155.601562 143.378906 L 155.359375 143.582031 C 155.328125 143.640625 155.183594 143.824219 155.144531 143.878906 C 155.109375 143.992188 155.054688 144.097656 154.976562 144.195312 L 154.976562 144.257812 L 154.960938 146.425781 L 154.960938 165.347656 L 155.007812 165.695312 C 155.074219 165.828125 155.128906 165.96875 155.171875 166.113281 C 155.195312 166.136719 155.390625 166.367188 155.414062 166.394531 C 155.546875 166.484375 155.667969 166.582031 155.785156 166.691406 L 186.75 187.3125 C 186.996094 187.46875 187.261719 187.550781 187.554688 187.550781 C 187.847656 187.550781 188.113281 187.46875 188.359375 187.3125 L 219.5 166.550781 L 219.738281 166.351562 C 219.792969 166.265625 219.855469 166.183594 219.921875 166.105469 C 219.941406 166.058594 220.050781 165.855469 220.078125 165.808594 C 220.105469 165.761719 220.105469 165.671875 220.125 165.589844 C 220.128906 165.542969 220.136719 165.496094 220.148438 165.449219 Z M 188.996094 142.574219 L 188.996094 128.925781 C 188.996094 128.652344 189.066406 128.398438 189.207031 128.164062 C 189.347656 127.929688 189.539062 127.746094 189.78125 127.617188 C 190.019531 127.488281 190.277344 127.429688 190.550781 127.445312 C 190.824219 127.457031 191.074219 127.539062 191.304688 127.691406 L 214.238281 142.988281 C 214.679688 143.285156 214.898438 143.695312 214.898438 144.222656 C 214.890625 144.285156 214.871094 144.347656 214.851562 144.40625 C 214.871094 144.46875 214.886719 144.527344 214.898438 144.589844 C 214.898438 145.117188 214.679688 145.53125 214.238281 145.824219 L 203.992188 152.675781 C 203.742188 152.839844 203.46875 152.925781 203.167969 152.925781 C 202.867188 152.925781 202.59375 152.839844 202.34375 152.675781 L 189.644531 144.1875 C 189.203125 143.894531 188.984375 143.484375 188.984375 142.953125 Z M 160.195312 144.214844 C 160.199219 143.691406 160.417969 143.28125 160.851562 142.988281 L 183.796875 127.679688 C 184.023438 127.527344 184.273438 127.445312 184.546875 127.429688 C 184.820312 127.417969 185.078125 127.476562 185.320312 127.605469 C 185.5625 127.734375 185.753906 127.917969 185.894531 128.152344 C 186.035156 128.386719 186.105469 128.640625 186.105469 128.914062 L 186.105469 142.953125 C 186.105469 143.484375 185.882812 143.894531 185.441406 144.1875 L 172.746094 152.675781 C 172.496094 152.839844 172.222656 152.921875 171.921875 152.921875 C 171.625 152.921875 171.347656 152.839844 171.101562 152.675781 L 160.851562 145.824219 C 160.410156 145.53125 160.1875 145.117188 160.183594 144.585938 C 160.195312 144.523438 160.214844 144.464844 160.234375 144.40625 C 160.210938 144.34375 160.195312 144.285156 160.183594 144.222656 Z M 159.335938 161.34375 C 159.140625 161.34375 158.953125 161.304688 158.769531 161.230469 C 158.585938 161.15625 158.425781 161.046875 158.289062 160.910156 C 158.148438 160.769531 158.042969 160.609375 157.96875 160.429688 C 157.890625 160.246094 157.855469 160.058594 157.855469 159.859375 L 157.855469 150.074219 C 157.851562 149.796875 157.921875 149.542969 158.0625 149.308594 C 158.207031 149.074219 158.398438 148.890625 158.636719 148.761719 C 158.878906 148.632812 159.136719 148.574219 159.414062 148.589844 C 159.6875 148.601562 159.9375 148.6875 160.164062 148.839844 L 167.492188 153.738281 C 167.921875 154.035156 168.136719 154.441406 168.136719 154.964844 C 168.136719 155.496094 167.917969 155.90625 167.476562 156.199219 L 160.152344 161.101562 C 159.902344 161.265625 159.625 161.351562 159.324219 161.351562 Z M 186.117188 180.621094 C 186.117188 180.816406 186.078125 181.007812 186.003906 181.1875 C 185.929688 181.371094 185.820312 181.53125 185.683594 181.671875 C 185.542969 181.808594 185.382812 181.917969 185.199219 181.992188 C 185.019531 182.066406 184.828125 182.105469 184.632812 182.105469 C 184.332031 182.105469 184.058594 182.023438 183.808594 181.855469 L 160.851562 166.578125 C 160.75 166.511719 160.660156 166.429688 160.578125 166.339844 C 160.496094 166.25 160.425781 166.152344 160.367188 166.042969 C 160.308594 165.9375 160.265625 165.824219 160.238281 165.703125 C 160.207031 165.585938 160.191406 165.464844 160.191406 165.34375 C 160.191406 165.222656 160.207031 165.101562 160.238281 164.984375 C 160.265625 164.863281 160.308594 164.753906 160.367188 164.644531 C 160.425781 164.535156 160.496094 164.4375 160.578125 164.347656 C 160.660156 164.257812 160.75 164.179688 160.851562 164.109375 L 171.105469 157.257812 C 171.355469 157.089844 171.632812 157.007812 171.933594 157.007812 C 172.234375 157.007812 172.507812 157.089844 172.757812 157.257812 L 185.453125 165.757812 C 185.894531 166.050781 186.113281 166.460938 186.113281 166.992188 Z M 187.546875 163.378906 C 187.246094 163.378906 186.972656 163.296875 186.722656 163.132812 L 176.363281 156.203125 C 175.925781 155.90625 175.707031 155.496094 175.707031 154.964844 C 175.71875 154.902344 175.734375 154.84375 175.753906 154.78125 C 175.734375 154.722656 175.71875 154.660156 175.707031 154.597656 C 175.707031 154.066406 175.925781 153.65625 176.363281 153.363281 L 186.722656 146.433594 C 186.972656 146.269531 187.246094 146.1875 187.546875 146.1875 C 187.84375 146.1875 188.121094 146.269531 188.371094 146.433594 L 198.730469 153.363281 C 199.167969 153.65625 199.390625 154.066406 199.386719 154.597656 C 199.378906 154.660156 199.359375 154.722656 199.339844 154.78125 C 199.359375 154.84375 199.378906 154.902344 199.386719 154.964844 C 199.390625 155.496094 199.167969 155.90625 198.730469 156.199219 L 188.371094 163.128906 C 188.121094 163.292969 187.84375 163.378906 187.546875 163.378906 Z M 214.238281 166.578125 L 191.289062 181.871094 C 191.039062 182.039062 190.765625 182.121094 190.464844 182.121094 C 190.265625 182.121094 190.078125 182.082031 189.898438 182.007812 C 189.714844 181.929688 189.554688 181.824219 189.414062 181.683594 C 189.277344 181.546875 189.167969 181.386719 189.09375 181.203125 C 189.019531 181.023438 188.980469 180.832031 188.980469 180.636719 L 188.980469 166.992188 C 188.980469 166.464844 189.199219 166.054688 189.640625 165.757812 L 202.34375 157.261719 C 202.59375 157.09375 202.867188 157.011719 203.167969 157.011719 C 203.46875 157.011719 203.746094 157.09375 203.996094 157.261719 L 214.238281 164.109375 C 214.339844 164.179688 214.433594 164.257812 214.515625 164.347656 C 214.597656 164.4375 214.667969 164.535156 214.722656 164.644531 C 214.78125 164.753906 214.824219 164.863281 214.855469 164.984375 C 214.882812 165.101562 214.898438 165.222656 214.898438 165.34375 C 214.898438 165.464844 214.882812 165.585938 214.855469 165.703125 C 214.824219 165.824219 214.78125 165.9375 214.722656 166.042969 C 214.667969 166.152344 214.597656 166.25 214.515625 166.339844 C 214.433594 166.429688 214.339844 166.511719 214.238281 166.578125 Z M 217.242188 159.871094 C 217.242188 160.066406 217.207031 160.253906 217.128906 160.4375 C 217.054688 160.617188 216.949219 160.777344 216.808594 160.917969 C 216.671875 161.058594 216.507812 161.164062 216.328125 161.238281 C 216.144531 161.316406 215.957031 161.351562 215.761719 161.351562 C 215.457031 161.351562 215.183594 161.265625 214.933594 161.097656 L 207.613281 156.199219 C 207.511719 156.128906 207.421875 156.050781 207.339844 155.960938 C 207.261719 155.871094 207.191406 155.773438 207.132812 155.664062 C 207.078125 155.558594 207.035156 155.445312 207.003906 155.328125 C 206.976562 155.210938 206.960938 155.089844 206.960938 154.96875 C 206.960938 154.847656 206.976562 154.730469 207.003906 154.613281 C 207.035156 154.492188 207.078125 154.382812 207.132812 154.273438 C 207.191406 154.167969 207.261719 154.070312 207.339844 153.980469 C 207.421875 153.886719 207.511719 153.808594 207.613281 153.742188 L 214.933594 148.835938 C 215.160156 148.683594 215.410156 148.601562 215.683594 148.585938 C 215.957031 148.574219 216.214844 148.628906 216.457031 148.757812 C 216.699219 148.886719 216.890625 149.070312 217.03125 149.304688 C 217.171875 149.539062 217.242188 149.796875 217.242188 150.070312 Z M 217.242188 159.871094 " fill-opacity="1" fill-rule="nonzero"/></g><g fill="#ffffff" fill-opacity="1"><g transform="translate(152.854213, 228.54983)"><g><path d="M 4.640625 0.125 C 3.847656 0.125 3.082031 0.00390625 2.34375 -0.234375 C 1.613281 -0.484375 1.035156 -0.804688 0.609375 -1.203125 L 1.171875 -2.375 C 1.566406 -2.007812 2.078125 -1.710938 2.703125 -1.484375 C 3.328125 -1.265625 3.972656 -1.15625 4.640625 -1.15625 C 5.503906 -1.15625 6.148438 -1.300781 6.578125 -1.59375 C 7.015625 -1.894531 7.234375 -2.289062 7.234375 -2.78125 C 7.234375 -3.132812 7.113281 -3.421875 6.875 -3.640625 C 6.644531 -3.867188 6.351562 -4.039062 6 -4.15625 C 5.65625 -4.28125 5.171875 -4.421875 4.546875 -4.578125 C 3.753906 -4.765625 3.113281 -4.953125 2.625 -5.140625 C 2.144531 -5.335938 1.734375 -5.628906 1.390625 -6.015625 C 1.046875 -6.410156 0.875 -6.945312 0.875 -7.625 C 0.875 -8.175781 1.019531 -8.675781 1.3125 -9.125 C 1.601562 -9.582031 2.050781 -9.945312 2.65625 -10.21875 C 3.257812 -10.488281 4.003906 -10.625 4.890625 -10.625 C 5.503906 -10.625 6.113281 -10.539062 6.71875 -10.375 C 7.320312 -10.21875 7.835938 -9.988281 8.265625 -9.6875 L 7.765625 -8.484375 C 7.328125 -8.765625 6.859375 -8.976562 6.359375 -9.125 C 5.859375 -9.269531 5.367188 -9.34375 4.890625 -9.34375 C 4.035156 -9.34375 3.394531 -9.1875 2.96875 -8.875 C 2.550781 -8.570312 2.34375 -8.175781 2.34375 -7.6875 C 2.34375 -7.320312 2.460938 -7.023438 2.703125 -6.796875 C 2.941406 -6.578125 3.238281 -6.40625 3.59375 -6.28125 C 3.945312 -6.15625 4.429688 -6.019531 5.046875 -5.875 C 5.828125 -5.6875 6.457031 -5.5 6.9375 -5.3125 C 7.425781 -5.125 7.84375 -4.832031 8.1875 -4.4375 C 8.53125 -4.050781 8.703125 -3.523438 8.703125 -2.859375 C 8.703125 -2.316406 8.550781 -1.816406 8.25 -1.359375 C 7.945312 -0.898438 7.488281 -0.535156 6.875 -0.265625 C 6.269531 -0.00390625 5.523438 0.125 4.640625 0.125 Z M 4.640625 0.125 "/></g></g></g><g fill="#ffffff" fill-opacity="1"><g transform="translate(164.1042, 228.54983)"><g><path d="M 3.65625 -9.1875 L 0.0625 -9.1875 L 0.0625 -10.5 L 8.75 -10.5 L 8.75 -9.1875 L 5.140625 -9.1875 L 5.140625 0 L 3.65625 0 Z M 3.65625 -9.1875 "/></g></g></g><g fill="#ffffff" fill-opacity="1"><g transform="translate(174.844192, 228.54983)"><g><path d="M 5.921875 0.125 C 4.523438 0.125 3.4375 -0.273438 2.65625 -1.078125 C 1.875 -1.878906 1.484375 -3.03125 1.484375 -4.53125 L 1.484375 -10.5 L 2.984375 -10.5 L 2.984375 -4.59375 C 2.984375 -2.34375 3.96875 -1.21875 5.9375 -1.21875 C 6.894531 -1.21875 7.628906 -1.492188 8.140625 -2.046875 C 8.648438 -2.597656 8.90625 -3.445312 8.90625 -4.59375 L 8.90625 -10.5 L 10.359375 -10.5 L 10.359375 -4.53125 C 10.359375 -3.019531 9.96875 -1.863281 9.1875 -1.0625 C 8.414062 -0.269531 7.328125 0.125 5.921875 0.125 Z M 5.921875 0.125 "/></g></g></g><g fill="#ffffff" fill-opacity="1"><g transform="translate(188.644183, 228.54983)"><g><path d="M 1.578125 -10.5 L 6 -10.5 C 7.113281 -10.5 8.097656 -10.28125 8.953125 -9.84375 C 9.816406 -9.40625 10.484375 -8.785156 10.953125 -7.984375 C 11.429688 -7.191406 11.671875 -6.28125 11.671875 -5.25 C 11.671875 -4.21875 11.429688 -3.300781 10.953125 -2.5 C 10.484375 -1.707031 9.816406 -1.09375 8.953125 -0.65625 C 8.097656 -0.21875 7.113281 0 6 0 L 1.578125 0 Z M 5.90625 -1.3125 C 6.757812 -1.3125 7.507812 -1.472656 8.15625 -1.796875 C 8.800781 -2.128906 9.296875 -2.59375 9.640625 -3.1875 C 9.992188 -3.78125 10.171875 -4.46875 10.171875 -5.25 C 10.171875 -6.03125 9.992188 -6.71875 9.640625 -7.3125 C 9.296875 -7.90625 8.800781 -8.363281 8.15625 -8.6875 C 7.507812 -9.019531 6.757812 -9.1875 5.90625 -9.1875 L 3.078125 -9.1875 L 3.078125 -1.3125 Z M 5.90625 -1.3125 "/></g></g></g><g fill="#ffffff" fill-opacity="1"><g transform="translate(202.969175, 228.54983)"><g><path d="M 1.578125 -10.5 L 3.078125 -10.5 L 3.078125 0 L 1.578125 0 Z M 1.578125 -10.5 "/></g></g></g><g fill="#ffffff" fill-opacity="1"><g transform="translate(209.554174, 228.54983)"><g><path d="M 6.3125 0.125 C 5.25 0.125 4.289062 -0.109375 3.4375 -0.578125 C 2.59375 -1.046875 1.925781 -1.6875 1.4375 -2.5 C 0.957031 -3.320312 0.71875 -4.238281 0.71875 -5.25 C 0.71875 -6.257812 0.957031 -7.171875 1.4375 -7.984375 C 1.925781 -8.804688 2.59375 -9.453125 3.4375 -9.921875 C 4.289062 -10.390625 5.25 -10.625 6.3125 -10.625 C 7.363281 -10.625 8.3125 -10.390625 9.15625 -9.921875 C 10.007812 -9.453125 10.675781 -8.8125 11.15625 -8 C 11.632812 -7.1875 11.875 -6.269531 11.875 -5.25 C 11.875 -4.226562 11.632812 -3.3125 11.15625 -2.5 C 10.675781 -1.6875 10.007812 -1.046875 9.15625 -0.578125 C 8.3125 -0.109375 7.363281 0.125 6.3125 0.125 Z M 6.3125 -1.21875 C 7.082031 -1.21875 7.773438 -1.390625 8.390625 -1.734375 C 9.003906 -2.085938 9.488281 -2.570312 9.84375 -3.1875 C 10.195312 -3.800781 10.375 -4.488281 10.375 -5.25 C 10.375 -6.007812 10.195312 -6.695312 9.84375 -7.3125 C 9.488281 -7.925781 9.003906 -8.40625 8.390625 -8.75 C 7.773438 -9.101562 7.082031 -9.28125 6.3125 -9.28125 C 5.539062 -9.28125 4.84375 -9.101562 4.21875 -8.75 C 3.59375 -8.40625 3.101562 -7.925781 2.75 -7.3125 C 2.394531 -6.695312 2.21875 -6.007812 2.21875 -5.25 C 2.21875 -4.488281 2.394531 -3.800781 2.75 -3.1875 C 3.101562 -2.570312 3.59375 -2.085938 4.21875 -1.734375 C 4.84375 -1.390625 5.539062 -1.21875 6.3125 -1.21875 Z M 6.3125 -1.21875 "/></g></g></g><g fill="#ffffff" fill-opacity="1"><g transform="translate(152.43288, 210.164636)"><g><path d="M 11.125 -6.78125 C 11.875 -6.550781 12.457031 -6.15625 12.875 -5.59375 C 13.300781 -5.039062 13.515625 -4.363281 13.515625 -3.5625 C 13.515625 -2.414062 13.066406 -1.535156 12.171875 -0.921875 C 11.285156 -0.304688 9.992188 0 8.296875 0 L 1.546875 0 L 1.546875 -13.046875 L 7.921875 -13.046875 C 9.515625 -13.046875 10.734375 -12.738281 11.578125 -12.125 C 12.429688 -11.519531 12.859375 -10.695312 12.859375 -9.65625 C 12.859375 -9.019531 12.707031 -8.453125 12.40625 -7.953125 C 12.101562 -7.460938 11.675781 -7.070312 11.125 -6.78125 Z M 4.546875 -10.78125 L 4.546875 -7.703125 L 7.546875 -7.703125 C 8.296875 -7.703125 8.863281 -7.832031 9.25 -8.09375 C 9.632812 -8.351562 9.828125 -8.738281 9.828125 -9.25 C 9.828125 -9.757812 9.632812 -10.140625 9.25 -10.390625 C 8.863281 -10.648438 8.296875 -10.78125 7.546875 -10.78125 Z M 8.078125 -2.28125 C 8.867188 -2.28125 9.460938 -2.410156 9.859375 -2.671875 C 10.265625 -2.929688 10.46875 -3.332031 10.46875 -3.875 C 10.46875 -4.957031 9.671875 -5.5 8.078125 -5.5 L 4.546875 -5.5 L 4.546875 -2.28125 Z M 8.078125 -2.28125 "/></g></g></g><g fill="#ffffff" fill-opacity="1"><g transform="translate(168.374245, 210.164636)"><g><path d="M 7.8125 -4.625 L 7.8125 0 L 4.796875 0 L 4.796875 -4.65625 L -0.265625 -13.046875 L 2.9375 -13.046875 L 6.4375 -7.25 L 9.921875 -13.046875 L 12.875 -13.046875 Z M 7.8125 -4.625 "/></g></g></g><g fill="#ffffff" fill-opacity="1"><g transform="translate(182.65625, 210.164636)"><g><path d="M 4.25 -10.59375 L 0.078125 -10.59375 L 0.078125 -13.046875 L 11.4375 -13.046875 L 11.4375 -10.59375 L 7.265625 -10.59375 L 7.265625 0 L 4.25 0 Z M 4.25 -10.59375 "/></g></g></g><g fill="#ffffff" fill-opacity="1"><g transform="translate(195.856869, 210.164636)"><g><path d="M 11.65625 -2.421875 L 11.65625 0 L 1.546875 0 L 1.546875 -13.046875 L 11.40625 -13.046875 L 11.40625 -10.625 L 4.546875 -10.625 L 4.546875 -7.796875 L 10.609375 -7.796875 L 10.609375 -5.4375 L 4.546875 -5.4375 L 4.546875 -2.421875 Z M 11.65625 -2.421875 "/></g></g></g><g fill="#ffffff" fill-opacity="1"><g transform="translate(210.04565, 210.164636)"><g><path d="M 11.65625 -2.421875 L 11.65625 0 L 1.546875 0 L 1.546875 -13.046875 L 11.40625 -13.046875 L 11.40625 -10.625 L 4.546875 -10.625 L 4.546875 -7.796875 L 10.609375 -7.796875 L 10.609375 -5.4375 L 4.546875 -5.4375 L 4.546875 -2.421875 Z M 11.65625 -2.421875 "/></g></g></g></svg>