<svg xmlns="http://www.w3.org/2000/svg" xmlns:xlink="http://www.w3.org/1999/xlink" width="500" zoomAndPan="magnify" viewBox="0 0 375 374.999991" height="500" preserveAspectRatio="xMidYMid meet" version="1.0"><defs><g/><clipPath id="dc7ef1e5a0"><path d="M 99.800781 160.5625 L 165.050781 160.5625 L 165.050781 225.8125 L 99.800781 225.8125 Z M 99.800781 160.5625 " clip-rule="nonzero"/></clipPath></defs><rect x="-37.5" width="450" fill="#ffffff" y="-37.499999" height="449.999989" fill-opacity="1"/><rect x="-37.5" width="450" fill="#ffffff" y="-37.499999" height="449.999989" fill-opacity="1"/><rect x="-37.5" width="450" fill="#22201c" y="-37.499999" height="449.999989" fill-opacity="1"/><g clip-path="url(#dc7ef1e5a0)"><path fill="#5e17eb" d="M 165.019531 184.652344 L 165.019531 182.808594 C 165.003906 182.722656 164.996094 182.632812 164.992188 182.546875 C 164.96875 182.472656 164.945312 182.367188 164.941406 182.351562 L 164.980469 182.316406 L 164.980469 182.199219 C 164.980469 182.199219 164.933594 182.023438 164.929688 182.003906 L 164.949219 181.988281 L 164.785156 182.078125 L 164.570312 181.804688 C 164.511719 181.765625 164.277344 181.5625 164.21875 181.507812 L 133.226562 160.839844 C 132.984375 160.679688 132.71875 160.597656 132.425781 160.597656 C 132.132812 160.597656 131.867188 160.679688 131.625 160.839844 L 100.480469 181.601562 L 100.242188 181.800781 C 100.210938 181.863281 100.066406 182.046875 100.027344 182.097656 C 99.992188 182.214844 99.933594 182.320312 99.859375 182.417969 L 99.859375 182.480469 L 99.839844 184.648438 L 99.839844 203.570312 L 99.890625 203.917969 C 99.953125 204.050781 100.011719 204.191406 100.054688 204.335938 C 100.078125 204.359375 100.269531 204.589844 100.296875 204.617188 C 100.425781 204.703125 100.550781 204.804688 100.664062 204.914062 L 131.632812 225.535156 C 131.878906 225.691406 132.144531 225.773438 132.4375 225.773438 C 132.726562 225.773438 132.996094 225.691406 133.242188 225.535156 L 164.382812 204.773438 L 164.621094 204.570312 C 164.675781 204.488281 164.738281 204.40625 164.804688 204.328125 C 164.824219 204.28125 164.933594 204.078125 164.960938 204.03125 C 164.988281 203.984375 164.988281 203.894531 165.003906 203.8125 C 165.011719 203.765625 165.019531 203.71875 165.027344 203.671875 Z M 133.878906 180.796875 L 133.878906 167.148438 C 133.878906 166.875 133.949219 166.621094 134.089844 166.386719 C 134.230469 166.148438 134.421875 165.96875 134.660156 165.839844 C 134.902344 165.710938 135.160156 165.652344 135.433594 165.664062 C 135.707031 165.679688 135.957031 165.761719 136.183594 165.914062 L 159.121094 181.210938 C 159.5625 181.503906 159.78125 181.917969 159.78125 182.445312 C 159.769531 182.507812 159.753906 182.570312 159.734375 182.628906 C 159.753906 182.6875 159.769531 182.75 159.78125 182.8125 C 159.78125 183.339844 159.5625 183.75 159.121094 184.042969 L 148.875 190.894531 C 148.625 191.0625 148.347656 191.144531 148.050781 191.144531 C 147.75 191.144531 147.472656 191.0625 147.222656 190.894531 L 134.527344 182.410156 C 134.085938 182.117188 133.867188 181.707031 133.867188 181.175781 Z M 105.078125 182.4375 C 105.082031 181.914062 105.300781 181.503906 105.734375 181.210938 L 128.679688 165.902344 C 128.90625 165.75 129.15625 165.667969 129.429688 165.652344 C 129.703125 165.640625 129.960938 165.699219 130.203125 165.828125 C 130.445312 165.957031 130.636719 166.136719 130.777344 166.375 C 130.917969 166.609375 130.988281 166.863281 130.984375 167.136719 L 130.984375 181.175781 C 130.984375 181.707031 130.765625 182.117188 130.324219 182.410156 L 117.628906 190.894531 C 117.378906 191.0625 117.105469 191.144531 116.804688 191.144531 C 116.503906 191.144531 116.230469 191.0625 115.980469 190.894531 L 105.734375 184.042969 C 105.289062 183.753906 105.066406 183.339844 105.066406 182.808594 C 105.078125 182.746094 105.09375 182.6875 105.113281 182.628906 C 105.09375 182.566406 105.078125 182.507812 105.066406 182.445312 Z M 104.21875 199.566406 C 104.023438 199.566406 103.832031 199.527344 103.652344 199.453125 C 103.46875 199.378906 103.308594 199.269531 103.171875 199.132812 C 103.03125 198.992188 102.925781 198.832031 102.847656 198.648438 C 102.773438 198.46875 102.734375 198.277344 102.734375 198.082031 L 102.734375 188.292969 C 102.734375 188.019531 102.804688 187.765625 102.945312 187.53125 C 103.085938 187.296875 103.277344 187.113281 103.519531 186.984375 C 103.761719 186.855469 104.019531 186.796875 104.292969 186.8125 C 104.566406 186.824219 104.820312 186.90625 105.046875 187.0625 L 112.371094 191.960938 C 112.804688 192.257812 113.019531 192.664062 113.019531 193.1875 C 113.019531 193.71875 112.800781 194.128906 112.359375 194.421875 L 105.035156 199.320312 C 104.785156 199.488281 104.507812 199.574219 104.207031 199.574219 Z M 131 218.84375 C 131 219.039062 130.960938 219.230469 130.886719 219.410156 C 130.808594 219.59375 130.703125 219.753906 130.5625 219.890625 C 130.425781 220.03125 130.265625 220.136719 130.082031 220.214844 C 129.902344 220.289062 129.710938 220.328125 129.515625 220.328125 C 129.214844 220.328125 128.941406 220.246094 128.691406 220.078125 L 105.734375 204.800781 C 105.632812 204.734375 105.542969 204.652344 105.460938 204.5625 C 105.378906 204.472656 105.308594 204.375 105.25 204.265625 C 105.191406 204.160156 105.148438 204.046875 105.117188 203.925781 C 105.089844 203.808594 105.074219 203.6875 105.074219 203.566406 C 105.074219 203.445312 105.089844 203.324219 105.117188 203.207031 C 105.148438 203.085938 105.191406 202.972656 105.25 202.867188 C 105.308594 202.757812 105.378906 202.660156 105.460938 202.570312 C 105.542969 202.480469 105.632812 202.398438 105.734375 202.332031 L 115.988281 195.480469 C 116.238281 195.3125 116.511719 195.230469 116.8125 195.230469 C 117.113281 195.230469 117.390625 195.3125 117.640625 195.480469 L 130.335938 203.980469 C 130.777344 204.273438 130.996094 204.683594 130.996094 205.210938 Z M 132.425781 201.601562 C 132.128906 201.601562 131.851562 201.519531 131.601562 201.355469 L 121.246094 194.425781 C 120.808594 194.128906 120.589844 193.71875 120.589844 193.1875 C 120.601562 193.125 120.617188 193.066406 120.636719 193.003906 C 120.617188 192.945312 120.601562 192.882812 120.589844 192.816406 C 120.589844 192.289062 120.808594 191.878906 121.246094 191.585938 L 131.601562 184.65625 C 131.851562 184.492188 132.128906 184.410156 132.425781 184.410156 C 132.726562 184.410156 133.003906 184.492188 133.253906 184.65625 L 143.613281 191.585938 C 144.050781 191.878906 144.269531 192.289062 144.269531 192.816406 C 144.257812 192.882812 144.242188 192.945312 144.222656 193.003906 C 144.242188 193.066406 144.257812 193.125 144.269531 193.1875 C 144.269531 193.71875 144.050781 194.128906 143.613281 194.421875 L 133.253906 201.351562 C 133.003906 201.515625 132.726562 201.601562 132.425781 201.601562 Z M 159.121094 204.800781 L 136.171875 220.09375 C 135.921875 220.261719 135.648438 220.34375 135.347656 220.339844 C 135.148438 220.339844 134.960938 220.304688 134.777344 220.230469 C 134.597656 220.152344 134.4375 220.046875 134.296875 219.90625 C 134.160156 219.769531 134.050781 219.609375 133.976562 219.425781 C 133.902344 219.246094 133.863281 219.054688 133.863281 218.859375 L 133.863281 205.214844 C 133.863281 204.6875 134.082031 204.277344 134.523438 203.980469 L 147.222656 195.484375 C 147.472656 195.316406 147.75 195.234375 148.050781 195.234375 C 148.351562 195.234375 148.625 195.316406 148.875 195.484375 L 159.121094 202.332031 C 159.222656 202.398438 159.3125 202.480469 159.394531 202.570312 C 159.476562 202.660156 159.546875 202.757812 159.605469 202.867188 C 159.664062 202.972656 159.707031 203.085938 159.738281 203.207031 C 159.765625 203.324219 159.78125 203.445312 159.78125 203.566406 C 159.78125 203.6875 159.765625 203.808594 159.738281 203.925781 C 159.707031 204.046875 159.664062 204.160156 159.605469 204.265625 C 159.546875 204.375 159.476562 204.472656 159.394531 204.5625 C 159.3125 204.652344 159.222656 204.734375 159.121094 204.800781 Z M 162.125 198.089844 C 162.125 198.289062 162.085938 198.476562 162.011719 198.660156 C 161.9375 198.839844 161.828125 199 161.691406 199.140625 C 161.550781 199.277344 161.390625 199.386719 161.210938 199.460938 C 161.027344 199.535156 160.839844 199.574219 160.640625 199.574219 C 160.339844 199.574219 160.066406 199.488281 159.816406 199.320312 L 152.496094 194.417969 C 152.394531 194.351562 152.304688 194.273438 152.222656 194.183594 C 152.140625 194.09375 152.074219 193.992188 152.015625 193.886719 C 151.960938 193.78125 151.917969 193.667969 151.886719 193.550781 C 151.859375 193.433594 151.84375 193.3125 151.84375 193.191406 C 151.84375 193.070312 151.859375 192.949219 151.886719 192.832031 C 151.917969 192.714844 151.960938 192.605469 152.015625 192.496094 C 152.074219 192.390625 152.140625 192.289062 152.222656 192.199219 C 152.304688 192.109375 152.394531 192.03125 152.496094 191.964844 L 159.816406 187.058594 C 160.042969 186.90625 160.292969 186.820312 160.566406 186.808594 C 160.839844 186.792969 161.097656 186.851562 161.339844 186.980469 C 161.582031 187.109375 161.773438 187.292969 161.914062 187.527344 C 162.054688 187.761719 162.125 188.015625 162.125 188.292969 Z M 162.125 198.089844 " fill-opacity="1" fill-rule="nonzero"/></g><g fill="#ffffff" fill-opacity="1"><g transform="translate(177.460512, 209.201573)"><g><path d="M 4.640625 0.125 C 3.847656 0.125 3.082031 0.00390625 2.34375 -0.234375 C 1.613281 -0.484375 1.035156 -0.804688 0.609375 -1.203125 L 1.171875 -2.375 C 1.566406 -2.007812 2.078125 -1.710938 2.703125 -1.484375 C 3.328125 -1.265625 3.972656 -1.15625 4.640625 -1.15625 C 5.503906 -1.15625 6.148438 -1.300781 6.578125 -1.59375 C 7.015625 -1.894531 7.234375 -2.289062 7.234375 -2.78125 C 7.234375 -3.132812 7.113281 -3.421875 6.875 -3.640625 C 6.644531 -3.867188 6.351562 -4.039062 6 -4.15625 C 5.65625 -4.28125 5.171875 -4.421875 4.546875 -4.578125 C 3.753906 -4.765625 3.113281 -4.953125 2.625 -5.140625 C 2.144531 -5.335938 1.734375 -5.628906 1.390625 -6.015625 C 1.046875 -6.410156 0.875 -6.945312 0.875 -7.625 C 0.875 -8.175781 1.019531 -8.675781 1.3125 -9.125 C 1.601562 -9.582031 2.050781 -9.945312 2.65625 -10.21875 C 3.257812 -10.488281 4.003906 -10.625 4.890625 -10.625 C 5.503906 -10.625 6.113281 -10.539062 6.71875 -10.375 C 7.320312 -10.21875 7.835938 -9.988281 8.265625 -9.6875 L 7.765625 -8.484375 C 7.328125 -8.765625 6.859375 -8.976562 6.359375 -9.125 C 5.859375 -9.269531 5.367188 -9.34375 4.890625 -9.34375 C 4.035156 -9.34375 3.394531 -9.1875 2.96875 -8.875 C 2.550781 -8.570312 2.34375 -8.175781 2.34375 -7.6875 C 2.34375 -7.320312 2.460938 -7.023438 2.703125 -6.796875 C 2.941406 -6.578125 3.238281 -6.40625 3.59375 -6.28125 C 3.945312 -6.15625 4.429688 -6.019531 5.046875 -5.875 C 5.828125 -5.6875 6.457031 -5.5 6.9375 -5.3125 C 7.425781 -5.125 7.84375 -4.832031 8.1875 -4.4375 C 8.53125 -4.050781 8.703125 -3.523438 8.703125 -2.859375 C 8.703125 -2.316406 8.550781 -1.816406 8.25 -1.359375 C 7.945312 -0.898438 7.488281 -0.535156 6.875 -0.265625 C 6.269531 -0.00390625 5.523438 0.125 4.640625 0.125 Z M 4.640625 0.125 "/></g></g></g><g fill="#ffffff" fill-opacity="1"><g transform="translate(188.710498, 209.201573)"><g><path d="M 3.65625 -9.1875 L 0.0625 -9.1875 L 0.0625 -10.5 L 8.75 -10.5 L 8.75 -9.1875 L 5.140625 -9.1875 L 5.140625 0 L 3.65625 0 Z M 3.65625 -9.1875 "/></g></g></g><g fill="#ffffff" fill-opacity="1"><g transform="translate(199.45049, 209.201573)"><g><path d="M 5.921875 0.125 C 4.523438 0.125 3.4375 -0.273438 2.65625 -1.078125 C 1.875 -1.878906 1.484375 -3.03125 1.484375 -4.53125 L 1.484375 -10.5 L 2.984375 -10.5 L 2.984375 -4.59375 C 2.984375 -2.34375 3.96875 -1.21875 5.9375 -1.21875 C 6.894531 -1.21875 7.628906 -1.492188 8.140625 -2.046875 C 8.648438 -2.597656 8.90625 -3.445312 8.90625 -4.59375 L 8.90625 -10.5 L 10.359375 -10.5 L 10.359375 -4.53125 C 10.359375 -3.019531 9.96875 -1.863281 9.1875 -1.0625 C 8.414062 -0.269531 7.328125 0.125 5.921875 0.125 Z M 5.921875 0.125 "/></g></g></g><g fill="#ffffff" fill-opacity="1"><g transform="translate(213.250481, 209.201573)"><g><path d="M 1.578125 -10.5 L 6 -10.5 C 7.113281 -10.5 8.097656 -10.28125 8.953125 -9.84375 C 9.816406 -9.40625 10.484375 -8.785156 10.953125 -7.984375 C 11.429688 -7.191406 11.671875 -6.28125 11.671875 -5.25 C 11.671875 -4.21875 11.429688 -3.300781 10.953125 -2.5 C 10.484375 -1.707031 9.816406 -1.09375 8.953125 -0.65625 C 8.097656 -0.21875 7.113281 0 6 0 L 1.578125 0 Z M 5.90625 -1.3125 C 6.757812 -1.3125 7.507812 -1.472656 8.15625 -1.796875 C 8.800781 -2.128906 9.296875 -2.59375 9.640625 -3.1875 C 9.992188 -3.78125 10.171875 -4.46875 10.171875 -5.25 C 10.171875 -6.03125 9.992188 -6.71875 9.640625 -7.3125 C 9.296875 -7.90625 8.800781 -8.363281 8.15625 -8.6875 C 7.507812 -9.019531 6.757812 -9.1875 5.90625 -9.1875 L 3.078125 -9.1875 L 3.078125 -1.3125 Z M 5.90625 -1.3125 "/></g></g></g><g fill="#ffffff" fill-opacity="1"><g transform="translate(227.575474, 209.201573)"><g><path d="M 1.578125 -10.5 L 3.078125 -10.5 L 3.078125 0 L 1.578125 0 Z M 1.578125 -10.5 "/></g></g></g><g fill="#ffffff" fill-opacity="1"><g transform="translate(234.160472, 209.201573)"><g><path d="M 6.3125 0.125 C 5.25 0.125 4.289062 -0.109375 3.4375 -0.578125 C 2.59375 -1.046875 1.925781 -1.6875 1.4375 -2.5 C 0.957031 -3.320312 0.71875 -4.238281 0.71875 -5.25 C 0.71875 -6.257812 0.957031 -7.171875 1.4375 -7.984375 C 1.925781 -8.804688 2.59375 -9.453125 3.4375 -9.921875 C 4.289062 -10.390625 5.25 -10.625 6.3125 -10.625 C 7.363281 -10.625 8.3125 -10.390625 9.15625 -9.921875 C 10.007812 -9.453125 10.675781 -8.8125 11.15625 -8 C 11.632812 -7.1875 11.875 -6.269531 11.875 -5.25 C 11.875 -4.226562 11.632812 -3.3125 11.15625 -2.5 C 10.675781 -1.6875 10.007812 -1.046875 9.15625 -0.578125 C 8.3125 -0.109375 7.363281 0.125 6.3125 0.125 Z M 6.3125 -1.21875 C 7.082031 -1.21875 7.773438 -1.390625 8.390625 -1.734375 C 9.003906 -2.085938 9.488281 -2.570312 9.84375 -3.1875 C 10.195312 -3.800781 10.375 -4.488281 10.375 -5.25 C 10.375 -6.007812 10.195312 -6.695312 9.84375 -7.3125 C 9.488281 -7.925781 9.003906 -8.40625 8.390625 -8.75 C 7.773438 -9.101562 7.082031 -9.28125 6.3125 -9.28125 C 5.539062 -9.28125 4.84375 -9.101562 4.21875 -8.75 C 3.59375 -8.40625 3.101562 -7.925781 2.75 -7.3125 C 2.394531 -6.695312 2.21875 -6.007812 2.21875 -5.25 C 2.21875 -4.488281 2.394531 -3.800781 2.75 -3.1875 C 3.101562 -2.570312 3.59375 -2.085938 4.21875 -1.734375 C 4.84375 -1.390625 5.539062 -1.21875 6.3125 -1.21875 Z M 6.3125 -1.21875 "/></g></g></g><g fill="#ffffff" fill-opacity="1"><g transform="translate(177.039176, 189.007605)"><g><path d="M 11.125 -6.78125 C 11.875 -6.550781 12.457031 -6.15625 12.875 -5.59375 C 13.300781 -5.039062 13.515625 -4.363281 13.515625 -3.5625 C 13.515625 -2.414062 13.066406 -1.535156 12.171875 -0.921875 C 11.285156 -0.304688 9.992188 0 8.296875 0 L 1.546875 0 L 1.546875 -13.046875 L 7.921875 -13.046875 C 9.515625 -13.046875 10.734375 -12.738281 11.578125 -12.125 C 12.429688 -11.519531 12.859375 -10.695312 12.859375 -9.65625 C 12.859375 -9.019531 12.707031 -8.453125 12.40625 -7.953125 C 12.101562 -7.460938 11.675781 -7.070312 11.125 -6.78125 Z M 4.546875 -10.78125 L 4.546875 -7.703125 L 7.546875 -7.703125 C 8.296875 -7.703125 8.863281 -7.832031 9.25 -8.09375 C 9.632812 -8.351562 9.828125 -8.738281 9.828125 -9.25 C 9.828125 -9.757812 9.632812 -10.140625 9.25 -10.390625 C 8.863281 -10.648438 8.296875 -10.78125 7.546875 -10.78125 Z M 8.078125 -2.28125 C 8.867188 -2.28125 9.460938 -2.410156 9.859375 -2.671875 C 10.265625 -2.929688 10.46875 -3.332031 10.46875 -3.875 C 10.46875 -4.957031 9.671875 -5.5 8.078125 -5.5 L 4.546875 -5.5 L 4.546875 -2.28125 Z M 8.078125 -2.28125 "/></g></g></g><g fill="#ffffff" fill-opacity="1"><g transform="translate(192.980541, 189.007605)"><g><path d="M 7.8125 -4.625 L 7.8125 0 L 4.796875 0 L 4.796875 -4.65625 L -0.265625 -13.046875 L 2.9375 -13.046875 L 6.4375 -7.25 L 9.921875 -13.046875 L 12.875 -13.046875 Z M 7.8125 -4.625 "/></g></g></g><g fill="#ffffff" fill-opacity="1"><g transform="translate(207.262546, 189.007605)"><g><path d="M 4.25 -10.59375 L 0.078125 -10.59375 L 0.078125 -13.046875 L 11.4375 -13.046875 L 11.4375 -10.59375 L 7.265625 -10.59375 L 7.265625 0 L 4.25 0 Z M 4.25 -10.59375 "/></g></g></g><g fill="#ffffff" fill-opacity="1"><g transform="translate(220.463165, 189.007605)"><g><path d="M 11.65625 -2.421875 L 11.65625 0 L 1.546875 0 L 1.546875 -13.046875 L 11.40625 -13.046875 L 11.40625 -10.625 L 4.546875 -10.625 L 4.546875 -7.796875 L 10.609375 -7.796875 L 10.609375 -5.4375 L 4.546875 -5.4375 L 4.546875 -2.421875 Z M 11.65625 -2.421875 "/></g></g></g><g fill="#ffffff" fill-opacity="1"><g transform="translate(234.651947, 189.007605)"><g><path d="M 11.65625 -2.421875 L 11.65625 0 L 1.546875 0 L 1.546875 -13.046875 L 11.40625 -13.046875 L 11.40625 -10.625 L 4.546875 -10.625 L 4.546875 -7.796875 L 10.609375 -7.796875 L 10.609375 -5.4375 L 4.546875 -5.4375 L 4.546875 -2.421875 Z M 11.65625 -2.421875 "/></g></g></g></svg>