<svg xmlns="http://www.w3.org/2000/svg" xmlns:xlink="http://www.w3.org/1999/xlink" width="500" zoomAndPan="magnify" viewBox="0 0 375 374.999991" height="500" preserveAspectRatio="xMidYMid meet" version="1.0"><defs><g/><clipPath id="a18ac27583"><path d="M 60.734375 134.625 L 157.0625 134.625 L 157.0625 230.953125 L 60.734375 230.953125 Z M 60.734375 134.625 " clip-rule="nonzero"/></clipPath><clipPath id="62111ceffd"><path d="M 74.949219 148.839844 L 142.847656 148.839844 L 142.847656 216.738281 L 74.949219 216.738281 Z M 74.949219 148.839844 " clip-rule="nonzero"/></clipPath></defs><rect x="-37.5" width="450" fill="#ffffff" y="-37.499999" height="449.999989" fill-opacity="1"/><rect x="-37.5" width="450" fill="#ffffff" y="-37.499999" height="449.999989" fill-opacity="1"/><rect x="-37.5" width="450" fill="#ffffff" y="-37.499999" height="449.999989" fill-opacity="1"/><g fill="#1f2937" fill-opacity="1"><g transform="translate(175.462126, 175.381399)"><g><path d="M 2.484375 -34.0625 L 13.046875 -34.0625 C 16.242188 -34.0625 18.789062 -33.378906 20.6875 -32.015625 C 22.59375 -30.660156 23.546875 -28.453125 23.546875 -25.390625 C 23.546875 -21.984375 22.125 -19.550781 19.28125 -18.09375 C 24.125 -17.238281 26.546875 -14.375 26.546875 -9.5 C 26.546875 -6.632812 25.554688 -4.332031 23.578125 -2.59375 C 21.597656 -0.863281 18.875 0 15.40625 0 L 2.484375 0 Z M 10.234375 -20.734375 L 10.859375 -20.734375 C 12.597656 -20.734375 13.890625 -21.035156 14.734375 -21.640625 C 15.585938 -22.242188 16.015625 -23.234375 16.015625 -24.609375 C 16.015625 -26.921875 14.296875 -28.078125 10.859375 -28.078125 L 10.234375 -28.078125 Z M 10.234375 -5.984375 L 12.671875 -5.984375 C 16.472656 -5.984375 18.375 -7.25 18.375 -9.78125 C 18.375 -11.300781 17.898438 -12.390625 16.953125 -13.046875 C 16.003906 -13.710938 14.578125 -14.046875 12.671875 -14.046875 L 10.234375 -14.046875 Z M 10.234375 -5.984375 "/></g></g></g><g fill="#1f2937" fill-opacity="1"><g transform="translate(202.960937, 175.381399)"><g><path d="M 18.546875 -21.1875 L 26.96875 -21.1875 L 10.328125 10.734375 L 1.90625 10.734375 L 9.203125 -3.296875 L -0.828125 -21.1875 L 7.59375 -21.1875 L 13.5 -10.328125 Z M 18.546875 -21.1875 "/></g></g></g><g fill="#1f2937" fill-opacity="1"><g transform="translate(229.097201, 175.381399)"><g><path d="M 3.71875 -21.1875 L 3.71875 -29.078125 L 11.03125 -29.078125 L 11.03125 -21.1875 L 15.484375 -21.1875 L 15.484375 -15.609375 L 11.03125 -15.609375 L 11.03125 -8.875 C 11.03125 -6.925781 11.578125 -5.953125 12.671875 -5.953125 C 12.953125 -5.953125 13.242188 -6.003906 13.546875 -6.109375 C 13.847656 -6.222656 14.082031 -6.332031 14.25 -6.4375 L 14.5 -6.609375 L 16.3125 -0.703125 C 14.738281 0.179688 12.945312 0.625 10.9375 0.625 C 9.5625 0.625 8.378906 0.382812 7.390625 -0.09375 C 6.398438 -0.582031 5.648438 -1.234375 5.140625 -2.046875 C 4.628906 -2.859375 4.265625 -3.710938 4.046875 -4.609375 C 3.828125 -5.503906 3.71875 -6.457031 3.71875 -7.46875 L 3.71875 -15.609375 L 0.65625 -15.609375 L 0.65625 -21.1875 Z M 3.71875 -21.1875 "/></g></g></g><g fill="#1f2937" fill-opacity="1"><g transform="translate(245.406555, 175.381399)"><g><path d="M 23.90625 -9.578125 L 8.546875 -9.578125 C 8.546875 -8.085938 9.023438 -6.984375 9.984375 -6.265625 C 10.953125 -5.554688 12 -5.203125 13.125 -5.203125 C 14.3125 -5.203125 15.25 -5.359375 15.9375 -5.671875 C 16.625 -5.992188 17.410156 -6.625 18.296875 -7.5625 L 23.578125 -4.921875 C 21.378906 -1.222656 17.71875 0.625 12.59375 0.625 C 9.40625 0.625 6.664062 -0.46875 4.375 -2.65625 C 2.09375 -4.851562 0.953125 -7.492188 0.953125 -10.578125 C 0.953125 -13.660156 2.09375 -16.300781 4.375 -18.5 C 6.664062 -20.707031 9.40625 -21.8125 12.59375 -21.8125 C 15.957031 -21.8125 18.691406 -20.835938 20.796875 -18.890625 C 22.898438 -16.953125 23.953125 -14.179688 23.953125 -10.578125 C 23.953125 -10.078125 23.9375 -9.742188 23.90625 -9.578125 Z M 8.75 -13.625 L 16.8125 -13.625 C 16.644531 -14.726562 16.207031 -15.578125 15.5 -16.171875 C 14.800781 -16.765625 13.898438 -17.0625 12.796875 -17.0625 C 11.585938 -17.0625 10.625 -16.742188 9.90625 -16.109375 C 9.195312 -15.472656 8.8125 -14.644531 8.75 -13.625 Z M 8.75 -13.625 "/></g></g></g><g fill="#1f2937" fill-opacity="1"><g transform="translate(270.304125, 175.381399)"><g><path d="M 23.90625 -9.578125 L 8.546875 -9.578125 C 8.546875 -8.085938 9.023438 -6.984375 9.984375 -6.265625 C 10.953125 -5.554688 12 -5.203125 13.125 -5.203125 C 14.3125 -5.203125 15.25 -5.359375 15.9375 -5.671875 C 16.625 -5.992188 17.410156 -6.625 18.296875 -7.5625 L 23.578125 -4.921875 C 21.378906 -1.222656 17.71875 0.625 12.59375 0.625 C 9.40625 0.625 6.664062 -0.46875 4.375 -2.65625 C 2.09375 -4.851562 0.953125 -7.492188 0.953125 -10.578125 C 0.953125 -13.660156 2.09375 -16.300781 4.375 -18.5 C 6.664062 -20.707031 9.40625 -21.8125 12.59375 -21.8125 C 15.957031 -21.8125 18.691406 -20.835938 20.796875 -18.890625 C 22.898438 -16.953125 23.953125 -14.179688 23.953125 -10.578125 C 23.953125 -10.078125 23.9375 -9.742188 23.90625 -9.578125 Z M 8.75 -13.625 L 16.8125 -13.625 C 16.644531 -14.726562 16.207031 -15.578125 15.5 -16.171875 C 14.800781 -16.765625 13.898438 -17.0625 12.796875 -17.0625 C 11.585938 -17.0625 10.625 -16.742188 9.90625 -16.109375 C 9.195312 -15.472656 8.8125 -14.644531 8.75 -13.625 Z M 8.75 -13.625 "/></g></g></g><g fill="#1f2937" fill-opacity="1"><g transform="translate(175.462126, 222.509261)"><g><path d="M 15.03125 -34.6875 C 16.875 -34.6875 18.675781 -34.414062 20.4375 -33.875 C 22.195312 -33.34375 23.503906 -32.816406 24.359375 -32.296875 L 25.609375 -31.46875 L 22.46875 -25.28125 C 22.21875 -25.4375 21.867188 -25.644531 21.421875 -25.90625 C 20.984375 -26.175781 20.160156 -26.53125 18.953125 -26.96875 C 17.742188 -27.40625 16.613281 -27.625 15.5625 -27.625 C 14.269531 -27.625 13.269531 -27.347656 12.5625 -26.796875 C 11.863281 -26.242188 11.515625 -25.503906 11.515625 -24.578125 C 11.515625 -24.109375 11.679688 -23.671875 12.015625 -23.265625 C 12.347656 -22.867188 12.910156 -22.441406 13.703125 -21.984375 C 14.503906 -21.535156 15.207031 -21.171875 15.8125 -20.890625 C 16.414062 -20.617188 17.351562 -20.207031 18.625 -19.65625 C 20.820312 -18.71875 22.695312 -17.441406 24.25 -15.828125 C 25.8125 -14.222656 26.59375 -12.398438 26.59375 -10.359375 C 26.59375 -8.410156 26.238281 -6.707031 25.53125 -5.25 C 24.832031 -3.789062 23.867188 -2.644531 22.640625 -1.8125 C 21.421875 -0.988281 20.066406 -0.378906 18.578125 0.015625 C 17.097656 0.421875 15.488281 0.625 13.75 0.625 C 12.257812 0.625 10.800781 0.46875 9.375 0.15625 C 7.945312 -0.144531 6.75 -0.519531 5.78125 -0.96875 C 4.820312 -1.425781 3.957031 -1.875 3.1875 -2.3125 C 2.414062 -2.75 1.847656 -3.117188 1.484375 -3.421875 L 0.953125 -3.875 L 4.828125 -10.40625 C 5.160156 -10.132812 5.613281 -9.785156 6.1875 -9.359375 C 6.769531 -8.929688 7.796875 -8.359375 9.265625 -7.640625 C 10.742188 -6.921875 12.046875 -6.5625 13.171875 -6.5625 C 16.453125 -6.5625 18.09375 -7.675781 18.09375 -9.90625 C 18.09375 -10.375 17.972656 -10.804688 17.734375 -11.203125 C 17.503906 -11.609375 17.09375 -12.007812 16.5 -12.40625 C 15.90625 -12.8125 15.378906 -13.128906 14.921875 -13.359375 C 14.472656 -13.585938 13.734375 -13.941406 12.703125 -14.421875 C 11.671875 -14.910156 10.90625 -15.28125 10.40625 -15.53125 C 8.34375 -16.550781 6.742188 -17.820312 5.609375 -19.34375 C 4.484375 -20.875 3.921875 -22.519531 3.921875 -24.28125 C 3.921875 -27.332031 5.050781 -29.828125 7.3125 -31.765625 C 9.570312 -33.710938 12.144531 -34.6875 15.03125 -34.6875 Z M 15.03125 -34.6875 "/></g></g></g><g fill="#1f2937" fill-opacity="1"><g transform="translate(203.208682, 222.509261)"><g><path d="M 3.71875 -21.1875 L 3.71875 -29.078125 L 11.03125 -29.078125 L 11.03125 -21.1875 L 15.484375 -21.1875 L 15.484375 -15.609375 L 11.03125 -15.609375 L 11.03125 -8.875 C 11.03125 -6.925781 11.578125 -5.953125 12.671875 -5.953125 C 12.953125 -5.953125 13.242188 -6.003906 13.546875 -6.109375 C 13.847656 -6.222656 14.082031 -6.332031 14.25 -6.4375 L 14.5 -6.609375 L 16.3125 -0.703125 C 14.738281 0.179688 12.945312 0.625 10.9375 0.625 C 9.5625 0.625 8.378906 0.382812 7.390625 -0.09375 C 6.398438 -0.582031 5.648438 -1.234375 5.140625 -2.046875 C 4.628906 -2.859375 4.265625 -3.710938 4.046875 -4.609375 C 3.828125 -5.503906 3.71875 -6.457031 3.71875 -7.46875 L 3.71875 -15.609375 L 0.65625 -15.609375 L 0.65625 -21.1875 Z M 3.71875 -21.1875 "/></g></g></g><g fill="#1f2937" fill-opacity="1"><g transform="translate(219.518036, 222.509261)"><g><path d="M 9.375 -21.1875 L 9.375 -11.109375 C 9.375 -9.015625 9.691406 -7.523438 10.328125 -6.640625 C 10.960938 -5.765625 12.035156 -5.328125 13.546875 -5.328125 C 15.054688 -5.328125 16.128906 -5.765625 16.765625 -6.640625 C 17.398438 -7.523438 17.71875 -9.015625 17.71875 -11.109375 L 17.71875 -21.1875 L 25.03125 -21.1875 L 25.03125 -9.328125 C 25.03125 -5.804688 24.113281 -3.265625 22.28125 -1.703125 C 20.445312 -0.148438 17.535156 0.625 13.546875 0.625 C 9.554688 0.625 6.644531 -0.148438 4.8125 -1.703125 C 2.976562 -3.265625 2.0625 -5.804688 2.0625 -9.328125 L 2.0625 -21.1875 Z M 9.375 -21.1875 "/></g></g></g><g fill="#1f2937" fill-opacity="1"><g transform="translate(246.603952, 222.509261)"><g><path d="M 3.921875 -2.609375 C 1.941406 -4.773438 0.953125 -7.425781 0.953125 -10.5625 C 0.953125 -13.707031 1.941406 -16.367188 3.921875 -18.546875 C 5.898438 -20.722656 8.421875 -21.8125 11.484375 -21.8125 C 14.285156 -21.8125 16.597656 -20.925781 18.421875 -19.15625 L 18.421875 -35.515625 L 25.734375 -35.515625 L 25.734375 0 L 18.5 0 L 18.5 -2.390625 L 18.421875 -2.390625 C 16.597656 -0.378906 14.285156 0.625 11.484375 0.625 C 8.421875 0.625 5.898438 -0.453125 3.921875 -2.609375 Z M 10.140625 -14.15625 C 9.191406 -13.226562 8.71875 -12.035156 8.71875 -10.578125 C 8.71875 -9.117188 9.171875 -7.925781 10.078125 -7 C 10.984375 -6.070312 12.179688 -5.609375 13.671875 -5.609375 C 15.097656 -5.609375 16.269531 -6.078125 17.1875 -7.015625 C 18.113281 -7.953125 18.578125 -9.140625 18.578125 -10.578125 C 18.578125 -12.035156 18.101562 -13.226562 17.15625 -14.15625 C 16.207031 -15.09375 15.046875 -15.5625 13.671875 -15.5625 C 12.265625 -15.5625 11.085938 -15.09375 10.140625 -14.15625 Z M 10.140625 -14.15625 "/></g></g></g><g fill="#1f2937" fill-opacity="1"><g transform="translate(274.80469, 222.509261)"><g><path d="M 3.171875 -33 C 4.023438 -33.851562 5.046875 -34.28125 6.234375 -34.28125 C 7.421875 -34.28125 8.441406 -33.851562 9.296875 -33 C 10.148438 -32.144531 10.578125 -31.125 10.578125 -29.9375 C 10.578125 -28.757812 10.148438 -27.742188 9.296875 -26.890625 C 8.441406 -26.035156 7.421875 -25.609375 6.234375 -25.609375 C 5.046875 -25.609375 4.023438 -26.035156 3.171875 -26.890625 C 2.328125 -27.742188 1.90625 -28.757812 1.90625 -29.9375 C 1.90625 -31.125 2.328125 -32.144531 3.171875 -33 Z M 2.484375 -21.1875 L 2.484375 0 L 9.78125 0 L 9.78125 -21.1875 Z M 2.484375 -21.1875 "/></g></g></g><g fill="#1f2937" fill-opacity="1"><g transform="translate(287.274118, 222.509261)"><g><path d="M 4.484375 -2.515625 C 2.128906 -4.609375 0.953125 -7.289062 0.953125 -10.5625 C 0.953125 -13.84375 2.175781 -16.535156 4.625 -18.640625 C 7.070312 -20.753906 10.097656 -21.8125 13.703125 -21.8125 C 17.253906 -21.8125 20.25 -20.75 22.6875 -18.625 C 25.125 -16.5 26.34375 -13.8125 26.34375 -10.5625 C 26.34375 -7.320312 25.148438 -4.644531 22.765625 -2.53125 C 20.390625 -0.425781 17.367188 0.625 13.703125 0.625 C 9.910156 0.625 6.835938 -0.421875 4.484375 -2.515625 Z M 10.140625 -14.15625 C 9.191406 -13.226562 8.71875 -12.035156 8.71875 -10.578125 C 8.71875 -9.117188 9.171875 -7.925781 10.078125 -7 C 10.984375 -6.070312 12.179688 -5.609375 13.671875 -5.609375 C 15.097656 -5.609375 16.269531 -6.078125 17.1875 -7.015625 C 18.113281 -7.953125 18.578125 -9.140625 18.578125 -10.578125 C 18.578125 -12.035156 18.101562 -13.226562 17.15625 -14.15625 C 16.207031 -15.09375 15.046875 -15.5625 13.671875 -15.5625 C 12.265625 -15.5625 11.085938 -15.09375 10.140625 -14.15625 Z M 10.140625 -14.15625 "/></g></g></g><g clip-path="url(#a18ac27583)"><path fill="#1f2937" d="M 108.894531 134.625 C 82.296875 134.625 60.734375 156.1875 60.734375 182.785156 C 60.734375 209.382812 82.296875 230.945312 108.894531 230.945312 L 157.054688 230.945312 L 157.054688 182.785156 C 157.0625 156.1875 135.496094 134.625 108.894531 134.625 Z M 108.894531 134.625 " fill-opacity="1" fill-rule="nonzero"/></g><g clip-path="url(#62111ceffd)"><path fill="#ffffff" d="M 108.894531 148.839844 C 90.148438 148.839844 74.949219 164.035156 74.949219 182.785156 C 74.949219 201.535156 90.148438 216.730469 108.894531 216.730469 L 142.839844 216.730469 L 142.839844 182.785156 C 142.847656 164.035156 127.644531 148.839844 108.894531 148.839844 Z M 108.894531 148.839844 " fill-opacity="1" fill-rule="nonzero"/></g></svg>