<svg xmlns="http://www.w3.org/2000/svg" xmlns:xlink="http://www.w3.org/1999/xlink" width="500" zoomAndPan="magnify" viewBox="0 0 375 374.999991" height="500" preserveAspectRatio="xMidYMid meet" version="1.0"><defs><clipPath id="05cf2b76bb"><path d="M 133.757812 133.757812 L 241 133.757812 L 241 241 L 133.757812 241 Z M 133.757812 133.757812 " clip-rule="nonzero"/></clipPath></defs><rect x="-37.5" width="450" fill="#ffffff" y="-37.499999" height="449.999989" fill-opacity="1"/><rect x="-37.5" width="450" fill="#ffffff" y="-37.499999" height="449.999989" fill-opacity="1"/><rect x="-37.5" width="450" fill="#f4f4f4" y="-37.499999" height="449.999989" fill-opacity="1"/><g clip-path="url(#05cf2b76bb)"><path fill="#5e17eb" d="M 240.957031 173.355469 L 240.957031 170.320312 C 240.929688 170.179688 240.914062 170.035156 240.90625 169.894531 C 240.871094 169.769531 240.832031 169.601562 240.824219 169.570312 L 240.886719 169.511719 L 240.886719 169.324219 C 240.886719 169.324219 240.8125 169.03125 240.804688 169 L 240.839844 168.972656 L 240.570312 169.121094 L 240.21875 168.675781 C 240.117188 168.609375 239.730469 168.273438 239.640625 168.1875 L 188.699219 134.210938 C 188.300781 133.949219 187.859375 133.816406 187.382812 133.816406 C 186.902344 133.816406 186.464844 133.949219 186.0625 134.210938 L 134.875 168.335938 L 134.480469 168.667969 C 134.433594 168.765625 134.191406 169.070312 134.128906 169.15625 C 134.070312 169.347656 133.976562 169.519531 133.851562 169.679688 L 133.851562 169.785156 L 133.824219 173.34375 L 133.824219 204.445312 L 133.902344 205.015625 C 134.011719 205.238281 134.101562 205.46875 134.171875 205.703125 C 134.210938 205.742188 134.53125 206.125 134.570312 206.167969 C 134.785156 206.3125 134.988281 206.476562 135.179688 206.65625 L 186.078125 240.550781 C 186.480469 240.808594 186.921875 240.941406 187.398438 240.941406 C 187.878906 240.941406 188.316406 240.808594 188.71875 240.550781 L 239.90625 206.425781 L 240.296875 206.09375 C 240.390625 205.957031 240.492188 205.824219 240.601562 205.695312 C 240.632812 205.617188 240.8125 205.285156 240.859375 205.207031 C 240.902344 205.128906 240.902344 204.976562 240.929688 204.847656 C 240.941406 204.769531 240.953125 204.691406 240.96875 204.617188 Z M 189.769531 167.015625 L 189.769531 144.582031 C 189.769531 144.132812 189.882812 143.714844 190.113281 143.328125 C 190.34375 142.941406 190.660156 142.640625 191.054688 142.429688 C 191.453125 142.21875 191.875 142.125 192.324219 142.144531 C 192.773438 142.167969 193.1875 142.304688 193.5625 142.554688 L 231.257812 167.699219 C 231.597656 167.925781 231.863281 168.21875 232.058594 168.578125 C 232.25 168.9375 232.347656 169.320312 232.347656 169.726562 C 232.328125 169.828125 232.300781 169.929688 232.269531 170.03125 C 232.300781 170.125 232.328125 170.226562 232.347656 170.328125 C 232.347656 170.734375 232.25 171.117188 232.058594 171.476562 C 231.863281 171.835938 231.597656 172.128906 231.257812 172.355469 L 214.417969 183.617188 C 214.007812 183.890625 213.554688 184.027344 213.0625 184.027344 C 212.566406 184.027344 212.117188 183.890625 211.707031 183.617188 L 190.835938 169.667969 C 190.496094 169.441406 190.230469 169.148438 190.039062 168.789062 C 189.84375 168.433594 189.75 168.046875 189.75 167.640625 Z M 142.433594 169.710938 C 142.433594 169.308594 142.53125 168.929688 142.71875 168.570312 C 142.910156 168.214844 143.175781 167.925781 143.507812 167.699219 L 181.222656 142.535156 C 181.597656 142.285156 182.007812 142.148438 182.457031 142.125 C 182.90625 142.105469 183.332031 142.199219 183.726562 142.410156 C 184.125 142.621094 184.4375 142.921875 184.667969 143.308594 C 184.898438 143.695312 185.015625 144.113281 185.015625 144.5625 L 185.015625 167.640625 C 185.015625 168.046875 184.917969 168.433594 184.726562 168.789062 C 184.535156 169.148438 184.265625 169.441406 183.929688 169.667969 L 163.058594 183.617188 C 162.648438 183.890625 162.199219 184.027344 161.707031 184.027344 C 161.214844 184.027344 160.761719 183.890625 160.351562 183.617188 L 143.507812 172.355469 C 143.167969 172.128906 142.898438 171.835938 142.703125 171.476562 C 142.511719 171.117188 142.414062 170.730469 142.414062 170.320312 C 142.433594 170.222656 142.457031 170.121094 142.492188 170.023438 C 142.457031 169.925781 142.433594 169.828125 142.414062 169.726562 Z M 141.019531 197.867188 C 140.695312 197.867188 140.382812 197.804688 140.085938 197.679688 C 139.785156 197.554688 139.523438 197.378906 139.292969 197.152344 C 139.066406 196.921875 138.890625 196.660156 138.765625 196.359375 C 138.640625 196.0625 138.582031 195.75 138.582031 195.429688 L 138.582031 179.339844 C 138.578125 178.890625 138.695312 178.472656 138.925781 178.085938 C 139.15625 177.695312 139.472656 177.398438 139.871094 177.183594 C 140.269531 176.972656 140.691406 176.878906 141.140625 176.902344 C 141.59375 176.921875 142.003906 177.0625 142.378906 177.3125 L 154.417969 185.367188 C 154.753906 185.59375 155.011719 185.886719 155.203125 186.242188 C 155.390625 186.601562 155.484375 186.980469 155.480469 187.382812 C 155.484375 187.792969 155.386719 188.175781 155.195312 188.535156 C 155.003906 188.894531 154.738281 189.1875 154.398438 189.414062 L 142.359375 197.464844 C 141.945312 197.738281 141.492188 197.878906 141 197.878906 Z M 185.035156 229.554688 C 185.035156 229.875 184.972656 230.1875 184.847656 230.484375 C 184.726562 230.785156 184.550781 231.046875 184.320312 231.277344 C 184.09375 231.503906 183.828125 231.679688 183.53125 231.804688 C 183.230469 231.929688 182.921875 231.992188 182.597656 231.992188 C 182.101562 231.992188 181.652344 231.855469 181.242188 231.582031 L 143.507812 206.46875 C 143.34375 206.359375 143.191406 206.230469 143.058594 206.082031 C 142.921875 205.929688 142.808594 205.769531 142.710938 205.59375 C 142.617188 205.414062 142.546875 205.230469 142.496094 205.035156 C 142.449219 204.839844 142.425781 204.640625 142.425781 204.441406 C 142.425781 204.242188 142.449219 204.042969 142.496094 203.847656 C 142.546875 203.65625 142.617188 203.46875 142.710938 203.292969 C 142.808594 203.113281 142.921875 202.953125 143.058594 202.804688 C 143.191406 202.65625 143.34375 202.523438 143.507812 202.414062 L 160.363281 191.152344 C 160.773438 190.878906 161.226562 190.738281 161.71875 190.738281 C 162.214844 190.738281 162.667969 190.878906 163.078125 191.152344 L 183.949219 205.121094 C 184.285156 205.347656 184.550781 205.640625 184.742188 205.996094 C 184.933594 206.355469 185.03125 206.742188 185.03125 207.148438 Z M 187.382812 201.214844 C 186.890625 201.210938 186.441406 201.078125 186.027344 200.804688 L 169.003906 189.417969 C 168.667969 189.191406 168.402344 188.894531 168.210938 188.535156 C 168.019531 188.175781 167.925781 187.792969 167.929688 187.382812 C 167.945312 187.28125 167.96875 187.179688 168 187.082031 C 167.96875 186.980469 167.945312 186.878906 167.929688 186.773438 C 167.925781 186.367188 168.023438 185.984375 168.214844 185.625 C 168.402344 185.265625 168.667969 184.972656 169.003906 184.746094 L 186.027344 173.359375 C 186.441406 173.089844 186.890625 172.953125 187.382812 172.953125 C 187.875 172.953125 188.328125 173.089844 188.738281 173.359375 L 205.769531 184.746094 C 206.105469 184.972656 206.371094 185.265625 206.5625 185.625 C 206.753906 185.984375 206.851562 186.367188 206.851562 186.773438 C 206.832031 186.878906 206.804688 186.980469 206.773438 187.082031 C 206.804688 187.179688 206.832031 187.28125 206.851562 187.382812 C 206.851562 187.792969 206.753906 188.175781 206.5625 188.535156 C 206.371094 188.894531 206.105469 189.1875 205.769531 189.414062 L 188.738281 200.800781 C 188.328125 201.074219 187.878906 201.210938 187.382812 201.214844 Z M 231.257812 206.46875 L 193.535156 231.605469 C 193.125 231.882812 192.675781 232.019531 192.179688 232.015625 C 191.859375 232.015625 191.546875 231.953125 191.25 231.828125 C 190.949219 231.707031 190.6875 231.53125 190.457031 231.300781 C 190.230469 231.074219 190.054688 230.808594 189.929688 230.511719 C 189.804688 230.210938 189.742188 229.902344 189.742188 229.578125 L 189.742188 207.152344 C 189.742188 206.746094 189.839844 206.363281 190.03125 206.003906 C 190.222656 205.644531 190.488281 205.351562 190.824219 205.125 L 211.707031 191.15625 C 212.117188 190.882812 212.570312 190.746094 213.0625 190.746094 C 213.558594 190.746094 214.011719 190.882812 214.421875 191.15625 L 231.257812 202.414062 C 231.425781 202.523438 231.578125 202.65625 231.710938 202.804688 C 231.847656 202.953125 231.960938 203.113281 232.054688 203.292969 C 232.152344 203.46875 232.222656 203.65625 232.269531 203.847656 C 232.320312 204.042969 232.34375 204.242188 232.34375 204.441406 C 232.34375 204.640625 232.320312 204.839844 232.269531 205.035156 C 232.222656 205.230469 232.152344 205.414062 232.054688 205.59375 C 231.960938 205.769531 231.847656 205.929688 231.710938 206.082031 C 231.578125 206.230469 231.425781 206.359375 231.257812 206.46875 Z M 236.199219 195.441406 C 236.199219 195.765625 236.136719 196.078125 236.011719 196.375 C 235.886719 196.675781 235.710938 196.9375 235.484375 197.167969 C 235.253906 197.394531 234.992188 197.570312 234.691406 197.695312 C 234.394531 197.816406 234.082031 197.878906 233.761719 197.878906 C 233.265625 197.878906 232.8125 197.738281 232.398438 197.460938 L 220.367188 189.40625 C 220.203125 189.296875 220.054688 189.164062 219.921875 189.019531 C 219.789062 188.871094 219.675781 188.707031 219.582031 188.53125 C 219.488281 188.355469 219.417969 188.171875 219.371094 187.976562 C 219.320312 187.785156 219.296875 187.589844 219.296875 187.390625 C 219.296875 187.191406 219.320312 186.992188 219.371094 186.800781 C 219.417969 186.605469 219.488281 186.421875 219.582031 186.246094 C 219.675781 186.070312 219.789062 185.910156 219.921875 185.761719 C 220.054688 185.613281 220.203125 185.484375 220.367188 185.371094 L 232.398438 177.308594 C 232.773438 177.058594 233.1875 176.921875 233.636719 176.898438 C 234.085938 176.875 234.507812 176.96875 234.90625 177.179688 C 235.304688 177.394531 235.617188 177.691406 235.851562 178.078125 C 236.082031 178.464844 236.199219 178.882812 236.199219 179.335938 Z M 236.199219 195.441406 " fill-opacity="1" fill-rule="nonzero"/></g></svg>