<svg width="270" height="230" viewBox="0 0 270 230" fill="none" xmlns="http://www.w3.org/2000/svg">
<path d="M222.841 93.6266V88.9727C222.796 88.757 222.771 88.5354 222.758 88.3198C222.701 88.1281 222.637 87.8706 222.624 87.8227L222.726 87.7328V87.4453C222.726 87.4453 222.605 86.9961 222.592 86.9482L222.65 86.9063L222.21 87.1339L221.636 86.451C221.47 86.3492 220.839 85.8341 220.692 85.7023L137.556 33.6049C136.906 33.2036 136.185 33 135.408 33C134.624 33 133.91 33.2036 133.253 33.6049L49.7149 85.93L49.071 86.4391C48.9945 86.5888 48.5993 87.056 48.4973 87.1878C48.4016 87.4813 48.2486 87.7448 48.0446 87.9904V88.1521L48 93.6086V141.298L48.1275 142.172C48.306 142.514 48.4526 142.867 48.5674 143.226C48.6311 143.286 49.1539 143.873 49.2176 143.939C49.5683 144.161 49.8997 144.412 50.2121 144.688L133.278 196.659C133.935 197.055 134.655 197.258 135.433 197.258C136.217 197.258 136.931 197.055 137.588 196.659L221.126 144.334L221.763 143.825C221.916 143.616 222.082 143.412 222.261 143.214C222.312 143.095 222.605 142.585 222.681 142.466C222.752 142.346 222.752 142.112 222.796 141.915C222.815 141.795 222.834 141.675 222.86 141.561L222.841 93.6266ZM139.303 83.9055V49.5073C139.303 48.8185 139.488 48.1776 139.864 47.5846C140.24 46.9917 140.756 46.5305 141.4 46.207C142.05 45.8836 142.739 45.7398 143.472 45.7698C144.205 45.8057 144.881 46.0154 145.493 46.3987L207.012 84.9536C207.566 85.301 208 85.7503 208.319 86.3013C208.631 86.8523 208.79 87.4393 208.79 88.0622C208.758 88.218 208.714 88.3737 208.663 88.5294C208.714 88.6732 208.758 88.8289 208.79 88.9846C208.79 89.6076 208.631 90.1945 208.319 90.7456C208 91.2966 207.566 91.7458 207.012 92.0932L179.529 109.361C178.86 109.78 178.12 109.99 177.317 109.99C176.507 109.99 175.774 109.78 175.105 109.361L141.043 87.9724C140.489 87.625 140.055 87.1758 139.743 86.6247C139.424 86.0797 139.271 85.4867 139.271 84.8638L139.303 83.9055ZM62.0505 88.0383C62.0505 87.4214 62.2099 86.8404 62.5159 86.2893C62.8283 85.7443 63.2618 85.301 63.8036 84.9536L125.354 46.3688C125.966 45.9854 126.636 45.7758 127.369 45.7398C128.102 45.7099 128.797 45.8536 129.441 46.1771C130.091 46.5005 130.601 46.9617 130.977 47.5547C131.353 48.1477 131.544 48.7885 131.544 49.4773V84.8638C131.544 85.4867 131.385 86.0797 131.073 86.6247C130.76 87.1758 130.32 87.625 129.772 87.9724L95.7105 109.361C95.0411 109.78 94.308 109.99 93.5048 109.99C92.7015 109.99 91.962 109.78 91.2926 109.361L63.8036 92.0932C63.249 91.7458 62.8091 91.2966 62.4904 90.7456C62.178 90.1945 62.0186 89.6016 62.0186 88.9727C62.0505 88.8229 62.0887 88.6672 62.1461 88.5175C62.0887 88.3677 62.0505 88.218 62.0186 88.0622L62.0505 88.0383ZM59.7428 131.211C59.2136 131.211 58.7036 131.115 58.2191 130.924C57.7282 130.732 57.3011 130.463 56.925 130.115C56.5552 129.762 56.2684 129.36 56.0644 128.899C55.8604 128.444 55.7648 127.965 55.7648 127.474V102.803C55.7584 102.114 55.9496 101.473 56.3258 100.88C56.7019 100.281 57.2182 99.8258 57.8685 99.4964C58.5187 99.1729 59.2073 99.0292 59.9404 99.0651C60.6799 99.0951 61.3493 99.3107 61.9613 99.694L81.609 112.045C82.1573 112.392 82.578 112.841 82.8904 113.386C83.1964 113.937 83.3494 114.518 83.343 115.135C83.3494 115.764 83.19 116.351 82.8776 116.902C82.5653 117.453 82.1318 117.902 81.5771 118.25L61.9294 130.594C61.2536 131.014 60.5141 131.229 59.7109 131.229L59.7428 131.211ZM131.576 179.799C131.576 180.29 131.474 180.769 131.27 181.224C131.073 181.685 130.786 182.087 130.41 182.44C130.04 182.788 129.606 183.057 129.122 183.249C128.631 183.44 128.127 183.536 127.598 183.536C126.789 183.536 126.056 183.327 125.386 182.907L63.8036 144.4C63.5359 144.233 63.2873 144.035 63.0705 143.807C62.8474 143.574 62.6625 143.328 62.5031 143.059C62.3501 142.783 62.2354 142.502 62.1525 142.202C62.076 141.903 62.0378 141.597 62.0378 141.292C62.0378 140.986 62.076 140.681 62.1525 140.381C62.2354 140.088 62.3501 139.8 62.5031 139.531C62.6625 139.255 62.8474 139.01 63.0705 138.782C63.2873 138.554 63.5359 138.351 63.8036 138.183L91.3118 120.915C91.9811 120.496 92.7206 120.28 93.5239 120.28C94.3335 120.28 95.073 120.496 95.7424 120.915L129.804 142.334C130.352 142.681 130.786 143.13 131.098 143.676C131.411 144.227 131.57 144.82 131.57 145.442L131.576 179.799ZM135.408 136.344C134.604 136.338 133.871 136.135 133.196 135.715L105.413 118.256C104.865 117.908 104.432 117.453 104.119 116.902C103.807 116.351 103.654 115.764 103.66 115.135C103.686 114.979 103.724 114.824 103.775 114.674C103.724 114.518 103.686 114.363 103.66 114.201C103.654 113.578 103.813 112.991 104.126 112.44C104.432 111.889 104.865 111.44 105.413 111.092L133.196 93.6326C133.871 93.2193 134.604 93.0096 135.408 93.0096C136.211 93.0096 136.95 93.2193 137.62 93.6326L165.415 111.092C165.963 111.44 166.397 111.889 166.709 112.44C167.021 112.991 167.181 113.578 167.181 114.201C167.149 114.363 167.104 114.518 167.053 114.674C167.104 114.824 167.149 114.979 167.181 115.135C167.181 115.764 167.021 116.351 166.709 116.902C166.397 117.453 165.963 117.902 165.415 118.25L137.62 135.709C136.95 136.129 136.217 136.338 135.408 136.344ZM207.012 144.4L145.448 182.943C144.779 183.368 144.046 183.578 143.236 183.572C142.713 183.572 142.203 183.476 141.719 183.285C141.228 183.099 140.801 182.829 140.425 182.476C140.055 182.129 139.768 181.721 139.564 181.266C139.36 180.805 139.258 180.332 139.258 179.835V145.448C139.258 144.826 139.418 144.239 139.73 143.688C140.042 143.136 140.476 142.687 141.024 142.34L175.105 120.921C175.774 120.502 176.514 120.292 177.317 120.292C178.127 120.292 178.866 120.502 179.535 120.921L207.012 138.183C207.286 138.351 207.534 138.554 207.751 138.782C207.974 139.01 208.159 139.255 208.312 139.531C208.472 139.8 208.586 140.088 208.663 140.381C208.746 140.681 208.784 140.986 208.784 141.292C208.784 141.597 208.746 141.903 208.663 142.202C208.586 142.502 208.472 142.783 208.312 143.059C208.159 143.328 207.974 143.574 207.751 143.807C207.534 144.035 207.286 144.233 207.012 144.4ZM215.076 127.492C215.076 127.989 214.974 128.468 214.77 128.923C214.566 129.384 214.279 129.786 213.909 130.139C213.533 130.486 213.106 130.756 212.615 130.948C212.131 131.133 211.621 131.229 211.098 131.229C210.288 131.229 209.549 131.014 208.873 130.588L189.238 118.238C188.97 118.07 188.728 117.866 188.511 117.645C188.295 117.417 188.11 117.166 187.957 116.896C187.804 116.627 187.689 116.345 187.613 116.046C187.53 115.752 187.491 115.453 187.491 115.147C187.491 114.842 187.53 114.536 187.613 114.243C187.689 113.943 187.804 113.662 187.957 113.392C188.11 113.123 188.295 112.877 188.511 112.649C188.728 112.422 188.97 112.224 189.238 112.051L208.873 99.688C209.485 99.3047 210.161 99.0951 210.894 99.0591C211.627 99.0232 212.316 99.1669 212.966 99.4904C213.616 99.8198 214.126 100.275 214.509 100.868C214.885 101.461 215.076 102.102 215.076 102.797V127.492Z" fill="#5E17EB"/>
</svg>
